<?xml version="1.0" encoding="UTF-8"?>
<svg version="1.1" xmlns="http://www.w3.org/2000/svg" width="520" height="557">
<path d="M0 0 C171.6 0 343.2 0 520 0 C520 183.81 520 367.62 520 557 C348.4 557 176.8 557 0 557 C0 373.19 0 189.38 0 0 Z " fill="#F6F6F6" transform="translate(0,0)"/>
<path d="M0 0 C0.92572815 -0.00608276 1.8514563 -0.01216553 2.80523682 -0.01843262 C33.77606716 -0.15141053 65.01385644 6.20097557 91.75 22.4375 C93.19826172 23.30761719 93.19826172 23.30761719 94.67578125 24.1953125 C118.13783565 39.04943436 137.36791789 60.89577661 143.75 88.4375 C144.52907843 92.51352739 144.86903669 96.34438304 144.84765625 100.4921875 C144.84443359 101.60078125 144.84121094 102.709375 144.83789062 103.8515625 C144.82951172 104.99367188 144.82113281 106.13578125 144.8125 107.3125 C144.80798828 108.4778125 144.80347656 109.643125 144.79882812 110.84375 C144.78708781 113.70838645 144.7706657 116.57291633 144.75 119.4375 C144.09 119.7675 143.43 120.0975 142.75 120.4375 C142.7406543 119.73367187 142.73130859 119.02984375 142.72167969 118.3046875 C142.18732043 86.20122171 134.36174426 63.11911458 111.4453125 40.125 C79.90524464 10.34290314 33.72327245 1.59490726 -8.12353516 2.33984375 C-15.55777327 2.57205484 -22.89589213 3.34992067 -30.25 4.4375 C-31.49265625 4.62054687 -32.7353125 4.80359375 -34.015625 4.9921875 C-51.03660776 7.97638578 -67.1581006 14.11980544 -82.25 22.4375 C-83.1575 22.92863281 -84.065 23.41976562 -85 23.92578125 C-106.16016916 35.96401851 -120.42214178 52.4846276 -128.25 75.4375 C-128.51683594 76.21222656 -128.78367187 76.98695312 -129.05859375 77.78515625 C-133.12825404 92.35173341 -130.23158269 108.50724097 -123.1875 121.5625 C-119.003227 128.28242451 -113.82409925 133.86340075 -108.25 139.4375 C-107.53070313 140.15679687 -106.81140625 140.87609375 -106.0703125 141.6171875 C-97.35368052 149.80753227 -86.98825747 156.26415165 -76.25 161.4375 C-76.00765625 160.77363281 -75.7653125 160.10976562 -75.515625 159.42578125 C-73.92518053 155.67056515 -71.99391054 152.17886394 -70 148.625 C-69.34680786 147.45517578 -69.34680786 147.45517578 -68.68041992 146.26171875 C-63.87984361 137.70805571 -58.91665678 129.24948483 -53.9609375 120.78515625 C-41.86614403 100.12028281 -29.93727422 79.35385128 -18.34912109 58.40014648 C-16.32477667 54.74106521 -14.28900997 51.08842476 -12.25 47.4375 C-11.53336182 46.15045166 -11.53336182 46.15045166 -10.80224609 44.83740234 C-9.31573224 42.17745147 -7.81588013 39.52544773 -6.3125 36.875 C-5.62099854 35.63218262 -5.62099854 35.63218262 -4.91552734 34.36425781 C-4.48062988 33.60338867 -4.04573242 32.84251953 -3.59765625 32.05859375 C-3.21617432 31.3823999 -2.83469238 30.70620605 -2.44165039 30.00952148 C-1.25 28.4375 -1.25 28.4375 1.75 27.4375 C2.07572998 28.04408447 2.40145996 28.65066895 2.73706055 29.27563477 C8.80254303 40.55703014 14.91439253 51.80515394 21.25 62.9375 C26.16643986 71.58144156 30.94997364 80.28838032 35.66845703 89.04174805 C39.94457129 96.96828138 44.27119065 104.86597962 48.625 112.75 C48.9616568 113.35966614 49.2983136 113.96933228 49.64517212 114.59747314 C54.49941167 123.38528312 59.37171199 132.16301732 64.25 140.9375 C69.47012264 150.32683405 74.68194269 159.72067132 79.875 169.125 C80.21060944 169.73273254 80.54621887 170.34046509 80.89199829 170.96661377 C85.45045313 179.2253837 89.96143084 187.50874197 94.4375 195.8125 C98.59845703 203.53160792 102.84892378 211.19186153 107.1875 218.8125 C112.51354619 228.16778083 117.65020774 237.61529904 122.73461914 247.10375977 C126.36593538 253.87753204 130.03981002 260.6231283 133.78857422 267.33251953 C136.3626848 271.93985687 138.92064127 276.55576823 141.46484375 281.1796875 C147.68817525 292.48776856 153.9230844 303.78452588 160.3125 315 C165.43318578 323.99635765 170.34487057 333.09695336 175.20626831 342.23501587 C179.99618149 351.23374968 184.92684638 360.14061597 189.9765625 368.99609375 C194.38460078 376.74257278 198.63138501 384.56945964 202.85351562 392.41845703 C207.29943464 400.6606939 211.88214945 408.82058424 216.52539062 416.953125 C223.75 429.63044208 223.75 429.63044208 223.75 432.4375 C184.15 432.9325 184.15 432.9325 143.75 433.4375 C140.78 439.7075 137.81 445.9775 134.75 452.4375 C110.85681171 487.35831366 76.72737284 506.13863229 35.62329102 514.28344727 C26.75067775 515.93603165 17.89502222 516.59506103 8.87890625 516.67578125 C7.96710602 516.68562042 7.05530579 516.69545959 6.11587524 516.70559692 C-50.59088273 517.19137107 -101.26878053 504.04985009 -142.9375 464.0625 C-148.71601077 458.11434487 -155.25931096 451.23684891 -158.46836853 443.50013733 C-160.06939521 439.93841942 -161.58090479 437.30189688 -164.25 434.4375 C-169.55837649 432.69034248 -174.73370005 432.89457666 -180.24609375 433.046875 C-181.80551529 433.04681861 -183.36494481 433.041468 -184.92433167 433.03106689 C-189.01116944 433.01792806 -193.09392101 433.07628553 -197.17999268 433.14996338 C-201.35624152 433.21248055 -205.53234986 433.20681898 -209.70898438 433.20703125 C-217.89070733 433.21742814 -226.06937331 433.3034141 -234.25 433.4375 C-233.3115335 431.71360308 -232.37264846 429.989934 -231.43359375 428.26635742 C-230.91079834 427.30646408 -230.38800293 426.34657074 -229.84936523 425.35758972 C-227.35347101 420.80063493 -224.80717254 416.27278423 -222.25 411.75 C-221.41251221 410.26850464 -221.41251221 410.26850464 -220.55810547 408.75708008 C-215.97690555 400.67587404 -211.31286696 392.64492938 -206.62084961 384.62768555 C-200.412804 374.01938952 -194.27620279 363.37033053 -188.14111328 352.71972656 C-185.01319852 347.29090058 -181.88141552 341.86430719 -178.75 336.4375 C-177.49998121 334.27084417 -176.24998122 332.1041775 -175 329.9375 C-172.5 325.60416667 -170 321.27083333 -167.5 316.9375 C-166.88116943 315.86483887 -166.26233887 314.79217773 -165.62475586 313.68701172 C-164.37564482 311.52192929 -163.12645871 309.35689018 -161.87719727 307.19189453 C-158.73797691 301.75134294 -155.60009437 296.31002784 -152.46484375 290.8671875 C-145.85072015 279.38813001 -139.21004216 267.92547925 -132.52587891 256.48706055 C-127.5457785 247.95886663 -122.60354916 239.40912324 -117.67749023 230.84960938 C-114.75448318 225.77148755 -111.82323463 220.69893934 -108.859375 215.64453125 C-108.34205811 214.75999268 -107.82474121 213.8754541 -107.29174805 212.96411133 C-106.33065131 211.32252193 -105.3661573 209.68291511 -104.39770508 208.0456543 C-102.08037425 204.48054508 -102.08037425 204.48054508 -101.25 200.4375 C-102.93006144 198.93207477 -102.93006144 198.93207477 -105.125 197.375 C-127.73976502 180.139647 -142.1176214 156.78283701 -146.25 128.4375 C-148.51574061 98.3233842 -141.32752267 71.96985999 -121.75 48.6875 C-119.93554775 46.58625212 -118.09667009 44.51085714 -116.25 42.4375 C-115.67765625 41.78007813 -115.1053125 41.12265625 -114.515625 40.4453125 C-97.23862236 21.83245914 -70.58722883 9.98896564 -46.25 4.4375 C-45.15026855 4.16679687 -45.15026855 4.16679687 -44.02832031 3.890625 C-29.42145536 0.41084067 -14.93976495 0.03707216 0 0 Z " fill="#F6F6F6" transform="translate(268.25,17.5625)"/>
<path d="M0 0 C0.92572815 -0.00608276 1.8514563 -0.01216553 2.80523682 -0.01843262 C33.77606716 -0.15141053 65.01385644 6.20097557 91.75 22.4375 C93.19826172 23.30761719 93.19826172 23.30761719 94.67578125 24.1953125 C118.13783565 39.04943436 137.36791789 60.89577661 143.75 88.4375 C144.52907843 92.51352739 144.86903669 96.34438304 144.84765625 100.4921875 C144.84443359 101.60078125 144.84121094 102.709375 144.83789062 103.8515625 C144.82951172 104.99367188 144.82113281 106.13578125 144.8125 107.3125 C144.80798828 108.4778125 144.80347656 109.643125 144.79882812 110.84375 C144.78708781 113.70838645 144.7706657 116.57291633 144.75 119.4375 C144.09 119.7675 143.43 120.0975 142.75 120.4375 C142.7406543 119.73367187 142.73130859 119.02984375 142.72167969 118.3046875 C142.18732043 86.20122171 134.36174426 63.11911458 111.4453125 40.125 C79.90524464 10.34290314 33.72327245 1.59490726 -8.12353516 2.33984375 C-15.55777327 2.57205484 -22.89589213 3.34992067 -30.25 4.4375 C-31.49265625 4.62054687 -32.7353125 4.80359375 -34.015625 4.9921875 C-51.03660776 7.97638578 -67.1581006 14.11980544 -82.25 22.4375 C-83.1575 22.92863281 -84.065 23.41976562 -85 23.92578125 C-106.16016916 35.96401851 -120.42214178 52.4846276 -128.25 75.4375 C-128.51683594 76.21222656 -128.78367187 76.98695312 -129.05859375 77.78515625 C-133.12825404 92.35173341 -130.23158269 108.50724097 -123.1875 121.5625 C-119.003227 128.28242451 -113.82409925 133.86340075 -108.25 139.4375 C-107.53070313 140.15679687 -106.81140625 140.87609375 -106.0703125 141.6171875 C-97.35368052 149.80753227 -86.98825747 156.26415165 -76.25 161.4375 C-76.00765625 160.77363281 -75.7653125 160.10976562 -75.515625 159.42578125 C-73.92518053 155.67056515 -71.99391054 152.17886394 -70 148.625 C-69.34680786 147.45517578 -69.34680786 147.45517578 -68.68041992 146.26171875 C-63.87984361 137.70805571 -58.91665678 129.24948483 -53.9609375 120.78515625 C-41.86614403 100.12028281 -29.93727422 79.35385128 -18.34912109 58.40014648 C-16.32477667 54.74106521 -14.28900997 51.08842476 -12.25 47.4375 C-11.53336182 46.15045166 -11.53336182 46.15045166 -10.80224609 44.83740234 C-9.31573224 42.17745147 -7.81588013 39.52544773 -6.3125 36.875 C-5.62099854 35.63218262 -5.62099854 35.63218262 -4.91552734 34.36425781 C-4.48062988 33.60338867 -4.04573242 32.84251953 -3.59765625 32.05859375 C-3.21617432 31.3823999 -2.83469238 30.70620605 -2.44165039 30.00952148 C-1.25 28.4375 -1.25 28.4375 1.75 27.4375 C2.07572998 28.04408447 2.40145996 28.65066895 2.73706055 29.27563477 C8.80254303 40.55703014 14.91439253 51.80515394 21.25 62.9375 C26.16643986 71.58144156 30.94997364 80.28838032 35.66845703 89.04174805 C39.94457129 96.96828138 44.27119065 104.86597962 48.625 112.75 C48.9616568 113.35966614 49.2983136 113.96933228 49.64517212 114.59747314 C54.49941167 123.38528312 59.37171199 132.16301732 64.25 140.9375 C69.47012264 150.32683405 74.68194269 159.72067132 79.875 169.125 C80.21060944 169.73273254 80.54621887 170.34046509 80.89199829 170.96661377 C85.45045313 179.2253837 89.96143084 187.50874197 94.4375 195.8125 C98.59845703 203.53160792 102.84892378 211.19186153 107.1875 218.8125 C112.51354619 228.16778083 117.65020774 237.61529904 122.73461914 247.10375977 C126.36593538 253.87753204 130.03981002 260.6231283 133.78857422 267.33251953 C136.3626848 271.93985687 138.92064127 276.55576823 141.46484375 281.1796875 C147.68817525 292.48776856 153.9230844 303.78452588 160.3125 315 C165.43318578 323.99635765 170.34487057 333.09695336 175.20626831 342.23501587 C179.99618149 351.23374968 184.92684638 360.14061597 189.9765625 368.99609375 C194.38460078 376.74257278 198.63138501 384.56945964 202.85351562 392.41845703 C207.29943464 400.6606939 211.88214945 408.82058424 216.52539062 416.953125 C223.75 429.63044208 223.75 429.63044208 223.75 432.4375 C184.15 432.9325 184.15 432.9325 143.75 433.4375 C140.78 439.7075 137.81 445.9775 134.75 452.4375 C110.85681171 487.35831366 76.72737284 506.13863229 35.62329102 514.28344727 C26.75067775 515.93603165 17.89502222 516.59506103 8.87890625 516.67578125 C7.96710602 516.68562042 7.05530579 516.69545959 6.11587524 516.70559692 C-50.59088273 517.19137107 -101.26878053 504.04985009 -142.9375 464.0625 C-148.71601077 458.11434487 -155.25931096 451.23684891 -158.46836853 443.50013733 C-160.06939521 439.93841942 -161.58090479 437.30189688 -164.25 434.4375 C-169.55837649 432.69034248 -174.73370005 432.89457666 -180.24609375 433.046875 C-181.80551529 433.04681861 -183.36494481 433.041468 -184.92433167 433.03106689 C-189.01116944 433.01792806 -193.09392101 433.07628553 -197.17999268 433.14996338 C-201.35624152 433.21248055 -205.53234986 433.20681898 -209.70898438 433.20703125 C-217.89070733 433.21742814 -226.06937331 433.3034141 -234.25 433.4375 C-233.3115335 431.71360308 -232.37264846 429.989934 -231.43359375 428.26635742 C-230.91079834 427.30646408 -230.38800293 426.34657074 -229.84936523 425.35758972 C-227.35347101 420.80063493 -224.80717254 416.27278423 -222.25 411.75 C-221.41251221 410.26850464 -221.41251221 410.26850464 -220.55810547 408.75708008 C-215.97690555 400.67587404 -211.31286696 392.64492938 -206.62084961 384.62768555 C-200.412804 374.01938952 -194.27620279 363.37033053 -188.14111328 352.71972656 C-185.01319852 347.29090058 -181.88141552 341.86430719 -178.75 336.4375 C-177.49998121 334.27084417 -176.24998122 332.1041775 -175 329.9375 C-172.5 325.60416667 -170 321.27083333 -167.5 316.9375 C-166.88116943 315.86483887 -166.26233887 314.79217773 -165.62475586 313.68701172 C-164.37564482 311.52192929 -163.12645871 309.35689018 -161.87719727 307.19189453 C-158.73797691 301.75134294 -155.60009437 296.31002784 -152.46484375 290.8671875 C-145.85072015 279.38813001 -139.21004216 267.92547925 -132.52587891 256.48706055 C-127.5457785 247.95886663 -122.60354916 239.40912324 -117.67749023 230.84960938 C-114.75448318 225.77148755 -111.82323463 220.69893934 -108.859375 215.64453125 C-108.34205811 214.75999268 -107.82474121 213.8754541 -107.29174805 212.96411133 C-106.33065131 211.32252193 -105.3661573 209.68291511 -104.39770508 208.0456543 C-102.08037425 204.48054508 -102.08037425 204.48054508 -101.25 200.4375 C-102.93006144 198.93207477 -102.93006144 198.93207477 -105.125 197.375 C-127.73976502 180.139647 -142.1176214 156.78283701 -146.25 128.4375 C-148.51574061 98.3233842 -141.32752267 71.96985999 -121.75 48.6875 C-119.93554775 46.58625212 -118.09667009 44.51085714 -116.25 42.4375 C-115.67765625 41.78007813 -115.1053125 41.12265625 -114.515625 40.4453125 C-97.23862236 21.83245914 -70.58722883 9.98896564 -46.25 4.4375 C-45.15026855 4.16679687 -45.15026855 4.16679687 -44.02832031 3.890625 C-29.42145536 0.41084067 -14.93976495 0.03707216 0 0 Z M-99.25 202.4375 C-99.6217334 203.10579834 -99.9934668 203.77409668 -100.37646484 204.46264648 C-107.41197794 217.09946869 -114.5023314 229.68959882 -121.88378906 242.12744141 C-124.6492159 246.80336506 -127.38658548 251.49572267 -130.125 256.1875 C-131.01783691 257.71721436 -131.01783691 257.71721436 -131.92871094 259.27783203 C-136.32436958 266.82160361 -140.66874459 274.39350073 -144.98291016 281.98413086 C-147.68466523 286.72966071 -150.43155491 291.44290205 -153.234375 296.12939453 C-173.68530249 330.39574411 -183.81927293 365.02683097 -174.25390625 404.67578125 C-168.31945828 427.57035482 -156.07440131 447.270315 -139.61083984 464.04150391 C-138.39191522 465.29191851 -137.20353261 466.57193663 -136.01953125 467.85546875 C-121.68208341 483.05370145 -102.49974072 493.79349955 -83.25 501.4375 C-81.50589844 502.13166016 -81.50589844 502.13166016 -79.7265625 502.83984375 C-70.73662311 506.22392848 -61.61026432 508.38815496 -52.25 510.4375 C-50.96996094 510.74494141 -50.96996094 510.74494141 -49.6640625 511.05859375 C-47.53285774 511.56960753 -45.39992284 512.01171148 -43.25 512.4375 C-41.98240845 512.69092163 -41.98240845 512.69092163 -40.68920898 512.94946289 C-29.35147693 514.88284077 -18.0098641 514.77465564 -6.53857422 514.75317383 C-3.02149271 514.75001928 0.49474097 514.77352082 4.01171875 514.79882812 C21.08512192 514.84829028 36.89955934 513.43744088 53.25 508.25 C54.21284912 507.94956787 55.17569824 507.64913574 56.16772461 507.33959961 C75.93485904 500.98803711 93.69103112 491.59015615 109.75 478.4375 C110.55050781 477.80328125 111.35101563 477.1690625 112.17578125 476.515625 C129.60308806 462.02898275 143.54996991 437.43825088 146.5 414.8828125 C148.45090147 387.99695161 142.15740558 366.73560081 124.66796875 345.96484375 C122.4138502 343.40205311 120.09894079 340.91361274 117.75 338.4375 C116.87859375 337.50164062 116.0071875 336.56578125 115.109375 335.6015625 C97.17254338 316.73087877 74.3648956 303.85513032 52.06459045 290.87734985 C44.69153982 286.58592914 37.36536514 282.222634 30.0625 277.8125 C20.36848588 271.9656375 10.5908446 266.27645023 0.77441406 260.63793945 C-5.30492767 257.14383733 -11.35786968 253.61891687 -17.35766602 249.98974609 C-23.65271716 246.18319234 -29.98273527 242.43595952 -36.3125 238.6875 C-36.89794586 238.34068176 -37.48339172 237.99386353 -38.08657837 237.63653564 C-44.05604394 234.10029789 -50.02737957 230.5672646 -56.00390625 227.04296875 C-56.90004639 226.51437256 -57.79618652 225.98577637 -58.71948242 225.44116211 C-60.47848241 224.40374509 -62.23775629 223.36679229 -63.99731445 222.33032227 C-69.04988739 219.34828525 -74.08301692 216.33579285 -79.1015625 213.296875 C-80.26153709 212.59575324 -81.42153046 211.89466254 -82.58154297 211.19360352 C-84.82509227 209.83596938 -87.06638517 208.47459799 -89.30517578 207.10913086 C-90.81700439 206.19466187 -90.81700439 206.19466187 -92.359375 205.26171875 C-93.70467285 204.44320435 -93.70467285 204.44320435 -95.07714844 203.6081543 C-97.13209662 202.27939791 -97.13209662 202.27939791 -99.25 202.4375 Z " fill="#22211F" transform="translate(268.25,17.5625)"/>
<path d="M0 0 C6.00668273 5.62924306 9.34013231 10.8325048 9.75 19.1875 C9.46282619 24.98252029 8.1560736 28.91497687 4.125 33.125 C-0.90232057 37.46947585 -6.11080656 39.85177422 -12.515625 41.484375 C-14.89542517 42.06425837 -14.89542517 42.06425837 -17.09765625 43.125 C-20.26628835 44.26588582 -23.23335956 44.65018 -26.56347656 45.06152344 C-37.17050433 46.39206502 -45.08662012 48.47804005 -52.125 57 C-54.55654788 59.65366043 -55.66560292 60.09596995 -59.3125 60.6015625 C-64.04495466 60.63065546 -68.36396071 60.62867976 -72.875 59.125 C-72.875 58.465 -72.875 57.805 -72.875 57.125 C-93.49802713 56.90091574 -93.49802713 56.90091574 -111.65234375 65.43359375 C-118.51945795 72.74590174 -122.43634079 79.05498671 -122.625 89.0625 C-122.66947266 90.23135742 -122.66947266 90.23135742 -122.71484375 91.42382812 C-122.78477701 93.32368177 -122.83224051 95.2243406 -122.875 97.125 C-136.37041415 93.78773923 -148.71477334 86.93938514 -156.8125 75.3125 C-162.71237288 64.83081094 -163.03375934 53.64066239 -159.97265625 42.3359375 C-151.89133031 18.69590218 -131.7305922 2.89626181 -110.11889648 -7.85791016 C-102.62400285 -11.43548577 -94.94571039 -13.92859238 -86.875 -15.875 C-85.99199219 -16.08898437 -85.10898438 -16.30296875 -84.19921875 -16.5234375 C-55.02533415 -22.94448387 -23.42538918 -19.44384614 0 0 Z " fill="#90C3EC" transform="translate(302.875,332.875)"/>
<path d="M0 0 C0 0.66 0 1.32 0 2 C5.28 2.33 10.56 2.66 16 3 C16 3.99 16 4.98 16 6 C16.84433594 6.09410156 17.68867188 6.18820312 18.55859375 6.28515625 C22.44068882 7.09153922 25.61302202 8.55983295 29.0625 10.4375 C29.71154297 10.78731934 30.36058594 11.13713867 31.02929688 11.49755859 C37.90371242 15.32132674 43.93682167 20.01923008 50 25 C51.03060547 25.78310547 51.03060547 25.78310547 52.08203125 26.58203125 C58.28089077 31.43757133 64.0519033 38.66717065 67 46 C67 47.32 67 48.64 67 50 C67.66 50 68.32 50 69 50 C69.71596804 51.90924812 70.43089772 53.81889197 71.140625 55.73046875 C71.67303459 57.13651408 72.22202037 58.53654923 72.796875 59.92578125 C76.26918407 68.48254289 77.18952978 77.02011739 77.3125 86.1875 C77.33014404 86.93563965 77.34778809 87.6837793 77.3659668 88.45458984 C77.35526731 97.2729128 74.17084155 104.67523724 68 111 C63.231637 114.6506177 58.48939842 115.46203033 52.58984375 115.62890625 C47.98624238 114.51098797 44.44974343 111.97682779 41.64624023 108.15405273 C40.43139698 106.11589029 39.32421949 104.05297557 38.25 101.9375 C37.50768399 100.52864073 36.76295951 99.12104737 36.015625 97.71484375 C35.67337891 97.06370605 35.33113281 96.41256836 34.97851562 95.74169922 C33.82419515 93.68707789 32.4213316 91.87561796 31 90 C31 89.34 31 88.68 31 88 C30.13568359 87.59394531 30.13568359 87.59394531 29.25390625 87.1796875 C26.98037607 85.9897289 25.01682437 84.62522282 22.9375 83.125 C15.07164608 77.88956896 6.83990586 75.90920395 -2.3125 74.125 C-19.12971318 70.78796319 -33.43678426 64.11691118 -43.34375 49.61328125 C-44.46576056 47.84293912 -45.5483522 46.04710365 -46.59375 44.23046875 C-47.80569238 41.88128042 -47.80569238 41.88128042 -50 41 C-51.09712662 22.16599296 -51.09712662 22.16599296 -45.80859375 15.94921875 C-45.21175781 15.30597656 -44.61492187 14.66273438 -44 14 C-43.45472656 13.22269531 -42.90945312 12.44539063 -42.34765625 11.64453125 C-32.2289463 -1.92826788 -15.22488456 -0.71493823 0 0 Z " fill="#F1DF74" transform="translate(230,390)"/>
<path d="M0 0 C10.17550183 1.24350395 18.51645456 7.23755975 26.1875 13.6875 C27.01616577 14.38238525 27.01616577 14.38238525 27.86157227 15.09130859 C30.60612858 17.48585325 32.68897234 19.56559011 34 23 C34.66 23 35.32 23 36 23 C38.5707756 26.16004659 40.74148124 29.61222185 43 33 C43.44859375 33.62132812 43.8971875 34.24265625 44.359375 34.8828125 C55.89299186 51.58408887 59.92036223 75.38873727 56.34375 95.15625 C53.29630828 107.87143786 47.77729903 118.31130746 38 127 C37.38898438 127.65613281 36.77796875 128.31226563 36.1484375 128.98828125 C25.79184874 138.68581437 13.48113008 140.41059279 0 140 C-0.07516846 139.40574219 -0.15033691 138.81148437 -0.2277832 138.19921875 C-0.57942422 135.46476464 -0.94585861 132.73248163 -1.3125 130 C-1.48942383 128.59814453 -1.48942383 128.59814453 -1.66992188 127.16796875 C-2.46154448 121.36273628 -3.74560662 116.40814581 -6 111 C-8 105.31578947 -8 105.31578947 -8 103 C-8.66 103 -9.32 103 -10 103 C-10.495 101.3603125 -10.495 101.3603125 -11 99.6875 C-15.1145542 88.90584408 -23.02365926 81.8100851 -32 75 C-33.05960937 74.09314453 -33.05960937 74.09314453 -34.140625 73.16796875 C-41.53068131 66.92026847 -51.50368401 61.13755196 -61 59 C-60.41989366 55.38239238 -59.06619446 53.63378611 -56.5 51.0625 C-55.8709375 50.41410156 -55.241875 49.76570313 -54.59375 49.09765625 C-47.40709849 43.28556007 -40.57107997 41.12659448 -31.5 39.875 C-18.48431316 37.97652268 -6.98619918 35.30769906 2 25 C5.04644158 20.08707661 4.62764338 14.58310681 4 9 C2.93669486 6.31399875 1.66503442 4.39348698 0 2 C0 1.34 0 0.68 0 0 Z " fill="#F2BCED" transform="translate(307,337)"/>
<path d="M0 0 C3.8901542 3.41488649 5.98251256 7.2502223 8.375 11.75 C12.44768099 19.24969304 16.67595923 26.64246753 21 34 C25.08117368 40.95731507 29.11568689 47.93077654 33 55 C36.80427087 61.92179061 40.75233824 68.75069477 44.75 75.5625 C49.59671031 83.82298018 54.34305987 92.13109132 59 100.5 C63.59866161 108.76216562 68.27944519 116.96817146 73.0625 125.125 C77.88049905 133.34842671 82.66150372 141.59114557 87.375 149.875 C88.22396851 151.35637451 88.22396851 151.35637451 89.09008789 152.86767578 C89.60434326 153.77501465 90.11859863 154.68235352 90.6484375 155.6171875 C91.10395996 156.41753418 91.55948242 157.21788086 92.02880859 158.04248047 C93 160 93 160 93 162 C89.37033496 160.62942016 86.05209504 159.00198387 82.67578125 157.09375 C81.65693848 156.52019775 80.6380957 155.94664551 79.58837891 155.35571289 C78.50733887 154.74332764 77.42629883 154.13094238 76.3125 153.5 C74.03528844 152.21721323 71.75794411 150.93466211 69.48046875 149.65234375 C67.81056885 148.71044189 67.81056885 148.71044189 66.10693359 147.74951172 C62.12136109 145.50523916 58.1255081 143.28000834 54.125 141.0625 C52.68880176 140.26562557 51.25260386 139.46875055 49.81640625 138.671875 C48.68162842 138.04249023 48.68162842 138.04249023 47.52392578 137.40039062 C42.36881868 134.54009905 37.21588276 131.67589675 32.0625 128.8125 C25.09062613 124.93869259 18.11847336 121.06539583 11.14453125 117.1953125 C-30.45578757 94.10596852 -30.45578757 94.10596852 -48 84 C-46.42158311 78.14550827 -43.4287709 73.38517255 -40.3125 68.25 C-39.12764787 66.27158642 -37.94410705 64.29238706 -36.76171875 62.3125 C-36.14345215 61.27867187 -35.52518555 60.24484375 -34.88818359 59.1796875 C-31.75171053 53.89788957 -28.68795043 48.57466681 -25.625 43.25 C-25.00826416 42.17959473 -24.39152832 41.10918945 -23.75610352 40.00634766 C-20.78917051 34.85476719 -17.82738078 29.7002622 -14.87081909 24.54272461 C-13.49639942 22.14612448 -12.12000865 19.75065961 -10.74334717 17.35534668 C-9.77172672 15.66284654 -8.80306531 13.96864878 -7.83447266 12.27441406 C-7.24456543 11.24799805 -6.6546582 10.22158203 -6.046875 9.1640625 C-5.27102051 7.80982178 -5.27102051 7.80982178 -4.47949219 6.42822266 C-3.1032693 4.16949117 -1.62664684 2.08334522 0 0 Z " fill="#F5F5F5" transform="translate(241,97)"/>
<path d="M0 0 C0.99 0.99 0.99 0.99 2 2 C-7.33249668 18.39127111 -16.72574957 34.74308027 -26.25585938 51.02050781 C-37.19359023 69.65965696 -37.19359023 69.65965696 -47.9453125 88.40625 C-49.55259735 91.23898757 -51.20599413 94.04231004 -52.8671875 96.84375 C-72.52680502 130.20974237 -81.2239724 164.02061994 -72.00390625 202.23828125 C-65.85265499 225.9692627 -52.97247891 245.64287567 -36 263 C-35.33742188 263.72445313 -34.67484375 264.44890625 -33.9921875 265.1953125 C-20.05657092 280.09616659 -0.76260625 290.54943883 18 298 C19.16273438 298.46277344 20.32546875 298.92554688 21.5234375 299.40234375 C30.51337689 302.78642848 39.63973568 304.95065496 49 307 C50.28003906 307.30744141 50.28003906 307.30744141 51.5859375 307.62109375 C53.71714226 308.13210753 55.85007716 308.57421148 58 309 C59.26759155 309.25342163 59.26759155 309.25342163 60.56079102 309.51196289 C71.89852307 311.44534077 83.2401359 311.33715564 94.71142578 311.31567383 C98.22850729 311.31251928 101.74474097 311.33602082 105.26171875 311.36132812 C122.33512192 311.41079028 138.14955934 309.99994088 154.5 304.8125 C155.46284912 304.51206787 156.42569824 304.21163574 157.41772461 303.90209961 C177.20875819 297.54285785 194.89479513 288.12356559 211 275 C211.72703125 274.43925781 212.4540625 273.87851562 213.203125 273.30078125 C227.04273831 262.133451 236.09701234 245.49147177 242 229 C242.66 229.99 243.32 230.98 244 232 C238.40281276 255.42156329 216.77281744 276.83572514 197 289 C170.78545794 305.00943868 140.9179462 313.96263063 110.12890625 314.23828125 C109.21710602 314.24812042 108.30530579 314.25795959 107.36587524 314.26809692 C50.65911727 314.75387107 -0.01878053 301.61235009 -41.6875 261.625 C-47.46601077 255.67684487 -54.00931096 248.79934891 -57.21836853 241.06263733 C-58.81939521 237.50091942 -60.33090479 234.86439688 -63 232 C-68.30837649 230.25284248 -73.48370005 230.45707666 -78.99609375 230.609375 C-80.55551529 230.60931861 -82.11494481 230.603968 -83.67433167 230.59356689 C-87.76116944 230.58042806 -91.84392101 230.63878553 -95.92999268 230.71246338 C-100.10624152 230.77498055 -104.28234986 230.76931898 -108.45898438 230.76953125 C-116.64070733 230.77992814 -124.81937331 230.8659141 -133 231 C-132.0615335 229.27610308 -131.12264846 227.552434 -130.18359375 225.82885742 C-129.66079834 224.86896408 -129.13800293 223.90907074 -128.59936523 222.92008972 C-126.10347101 218.36313493 -123.55717254 213.83528423 -121 209.3125 C-120.16251221 207.83100464 -120.16251221 207.83100464 -119.30810547 206.31958008 C-114.72690555 198.23837404 -110.06286696 190.20742938 -105.37084961 182.19018555 C-99.162804 171.58188952 -93.02620279 160.93283053 -86.89111328 150.28222656 C-83.76319852 144.85340058 -80.63141552 139.42680719 -77.5 134 C-76.24998121 131.83334417 -74.99998122 129.6666775 -73.75 127.5 C-70 121 -70 121 -66.25 114.5 C-65.63116943 113.42733887 -65.01233887 112.35467773 -64.37475586 111.24951172 C-63.12564482 109.08442929 -61.87645871 106.91939018 -60.62719727 104.75439453 C-57.48797691 99.31384294 -54.35009437 93.87252784 -51.21484375 88.4296875 C-44.60072015 76.95063001 -37.96004216 65.48797925 -31.27587891 54.04956055 C-25.6737738 44.45621206 -20.12459086 34.83262071 -14.578125 25.20703125 C-9.73205563 16.79698367 -4.86682167 8.39804987 0 0 Z " fill="#232220" transform="translate(167,220)"/>
<path d="M0 0 C0 0.66 0 1.32 0 2 C5.28 2.33 10.56 2.66 16 3 C13.76011561 9.71965318 13.76011561 9.71965318 11.0625 13.0625 C9.25684831 15.35141613 7.72617015 17.4694226 6.25 20 C5.63125 20.99 5.63125 20.99 5 22 C4.34 22 3.68 22 3 22 C2.79375 22.680625 2.5875 23.36125 2.375 24.0625 C-2.28029327 34.00789925 -11.2121843 39.77679216 -21.05859375 43.828125 C-30.06087964 46.85082346 -39.53074269 46.10344437 -48 42 C-48.66 41.67 -49.32 41.34 -50 41 C-51.09712662 22.16599296 -51.09712662 22.16599296 -45.80859375 15.94921875 C-45.21175781 15.30597656 -44.61492187 14.66273438 -44 14 C-43.45472656 13.22269531 -42.90945312 12.44539063 -42.34765625 11.64453125 C-32.2289463 -1.92826788 -15.22488456 -0.71493823 0 0 Z " fill="#C4CC7D" transform="translate(230,390)"/>
<path d="M0 0 C2.61217386 2.74278255 4.36647201 5.59735474 6 9 C6.495 9.99 6.495 9.99 7 11 C7.72686484 17.74945919 7.80120726 23.6297593 3.69140625 29.25 C-0.69402541 33.78735193 -6.06574936 36.92991257 -12 39 C-15.08556972 38.6369918 -16.32505941 37.78329373 -19 36 C-19 35.34 -19 34.68 -19 34 C-19.825 33.7525 -20.65 33.505 -21.5 33.25 C-24.13532257 32.30881337 -26.16799554 31.38789387 -28.5703125 30.0546875 C-33.33876988 27.63861052 -38.13845775 26.75929128 -43.375 25.875 C-45.15487183 25.56689629 -46.93360414 25.25211229 -48.7109375 24.9296875 C-49.48743652 24.79804199 -50.26393555 24.66639648 -51.06396484 24.53076172 C-53 24 -53 24 -55 22 C-55.825 21.690625 -56.65 21.38125 -57.5 21.0625 C-60 20 -60 20 -62 17 C-61.625 13.3125 -61.625 13.3125 -61 10 C-60.01 9.67 -59.02 9.34 -58 9 C-57.67 8.01 -57.34 7.02 -57 6 C-51.93612993 1.73568836 -46.36650757 0.44810199 -40 -1 C-39.15566406 -1.20753906 -38.31132812 -1.41507812 -37.44140625 -1.62890625 C-26.25239469 -4.06426189 -10.45665155 -5.32759778 0 0 Z " fill="#8D9EEB" transform="translate(305,335)"/>
<path d="M0 0 C5.46998073 2.48635488 8.92120675 6.97932636 12 12 C12.77728344 14.49548894 12.94388476 16.36258368 13 19 C13.66 19 14.32 19 15 19 C15.71596804 20.90924812 16.43089772 22.81889197 17.140625 24.73046875 C17.67303459 26.13651408 18.22202037 27.53654923 18.796875 28.92578125 C22.50469482 38.06290866 23.3409148 47.20816946 23 57 C10.71030276 56.76030732 -0.52617511 53.04806114 -10 45 C-14.75989504 39.70781563 -18.51229633 34.56898802 -18.3203125 27.21875 C-17.44070849 21.12588318 -14.24828989 15.38989955 -10 11 C-9.34 11 -8.68 11 -8 11 C-7.73445313 10.41734375 -7.46890625 9.8346875 -7.1953125 9.234375 C-5.96697004 6.93825772 -4.59685061 5.19643982 -2.875 3.25 C-2.33617187 2.63640625 -1.79734375 2.0228125 -1.2421875 1.390625 C-0.83226562 0.93171875 -0.42234375 0.4728125 0 0 Z " fill="#F1AB74" transform="translate(284,421)"/>
<path d="M0 0 C3.92199844 3.92199844 4.29276059 8.90720065 4.3125 14.25 C4.11217891 24.6431295 0.76522778 33.35215833 -5 42 C-5.99 42.66 -6.98 43.32 -8 44 C-8.71285156 43.33613281 -9.42570312 42.67226563 -10.16015625 41.98828125 C-11.11792969 41.10527344 -12.07570313 40.22226562 -13.0625 39.3125 C-14.47208984 38.00732422 -14.47208984 38.00732422 -15.91015625 36.67578125 C-21.50875322 31.70868651 -27.47627506 28.02684222 -34.1875 24.75 C-35.23454102 24.2240625 -35.23454102 24.2240625 -36.30273438 23.6875 C-39.52865408 22.09142174 -42.47190103 20.78737021 -46 20 C-45.41989366 16.38239238 -44.06619446 14.63378611 -41.5 12.0625 C-40.55640625 11.08990234 -40.55640625 11.08990234 -39.59375 10.09765625 C-32.38110837 4.26454096 -25.33709136 2.02030822 -16.25 0.625 C-15.23550781 0.44839844 -14.22101563 0.27179688 -13.17578125 0.08984375 C-4.58559859 -1.32115866 -4.58559859 -1.32115866 0 0 Z " fill="#F7F6F7" transform="translate(292,376)"/>
<path d="M0 0 C2 1 2 1 3.5 4.1875 C9.17634486 15.8962704 18.05025823 25.71022245 27 35 C27.64195312 35.70511719 28.28390625 36.41023438 28.9453125 37.13671875 C42.92520168 52.05465245 62.19399019 62.53220344 81 70 C82.16273438 70.46277344 83.32546875 70.92554688 84.5234375 71.40234375 C93.51337689 74.78642848 102.63973568 76.95065496 112 79 C112.85335937 79.20496094 113.70671875 79.40992188 114.5859375 79.62109375 C116.71714226 80.13210753 118.85007716 80.57421148 121 81 C122.26759155 81.25342163 122.26759155 81.25342163 123.56079102 81.51196289 C134.89852307 83.44534077 146.2401359 83.33715564 157.71142578 83.31567383 C161.22850729 83.31251928 164.74474097 83.33602082 168.26171875 83.36132812 C185.33512192 83.41079028 201.14955934 81.99994088 217.5 76.8125 C218.46284912 76.51206787 219.42569824 76.21163574 220.41772461 75.90209961 C240.20875819 69.54285785 257.89479513 60.12356559 274 47 C274.72703125 46.43925781 275.4540625 45.87851562 276.203125 45.30078125 C290.04273831 34.133451 299.09701234 17.49147177 305 1 C305.66 1.99 306.32 2.98 307 4 C301.40281276 27.42156329 279.77281744 48.83572514 260 61 C233.78545794 77.00943868 203.9179462 85.96263063 173.12890625 86.23828125 C172.21710602 86.24812042 171.30530579 86.25795959 170.36587524 86.26809692 C113.65911727 86.75387107 62.98121947 73.61235009 21.3125 33.625 C13.58232638 25.6678855 0 11.56860499 0 0 Z " fill="#555555" transform="translate(104,448)"/>
<path d="M0 0 C-0.66796875 1.921875 -0.66796875 1.921875 -2 4 C-4.36328125 4.765625 -4.36328125 4.765625 -7.3125 5.25 C-14.91384688 6.91792144 -20.61869549 10.68059848 -27 15 C-28.34384766 15.90105469 -28.34384766 15.90105469 -29.71484375 16.8203125 C-31.21522154 17.82704897 -32.70984798 18.84247964 -34.1953125 19.87109375 C-36 21 -36 21 -39 22 C-40.20882096 24.00016466 -40.20882096 24.00016466 -41 26 C-41.66 26 -42.32 26 -43 26 C-43.33 27.32 -43.66 28.64 -44 30 C-44.58910156 30.08636719 -45.17820313 30.17273438 -45.78515625 30.26171875 C-50.24401252 31.74800417 -52.57427828 36.1788069 -55 40 C-56.89246381 43.92191562 -58.45630006 47.93076157 -60 52 C-60.57531551 53.31603423 -61.15716181 54.62926573 -61.75 55.9375 C-65.36162164 64.78597302 -64.53283738 74.99114617 -60.9375 83.75 C-60.57527344 84.52859375 -60.21304688 85.3071875 -59.83984375 86.109375 C-59 88 -59 88 -59 90 C-58.071875 90.0928125 -58.071875 90.0928125 -57.125 90.1875 C-56.42375 90.455625 -55.7225 90.72375 -55 91 C-54.33333333 92.66666667 -53.66666667 94.33333333 -53 96 C-51.10820797 96.6814823 -51.10820797 96.6814823 -49 97 C-47.65210653 97.98028616 -46.31787285 98.97971135 -45 100 C-43.515 100.495 -43.515 100.495 -42 101 C-42 101.66 -42 102.32 -42 103 C-40.58398286 103.48108275 -39.16715563 103.95978141 -37.75 104.4375 C-36.96109375 104.70433594 -36.1721875 104.97117187 -35.359375 105.24609375 C-33.25178012 105.91954708 -31.15246027 106.49150595 -29 107 C-29.03480469 105.84242188 -29.06960937 104.68484375 -29.10546875 103.4921875 C-29.13362207 101.9531396 -29.16092056 100.41407589 -29.1875 98.875 C-29.21263672 98.11445313 -29.23777344 97.35390625 -29.26367188 96.5703125 C-29.32777927 91.61267416 -28.7493782 88.29469616 -26 84 C-24.05651499 82.26776336 -22.05279996 80.60118397 -20 79 C-18.88625 77.7315625 -18.88625 77.7315625 -17.75 76.4375 C-14.50791832 73.5638367 -11.43858479 72.35603609 -7.40234375 70.89453125 C-5.04426274 70.09094701 -5.04426274 70.09094701 -3.18701172 68.96069336 C-0.52048959 67.78936443 1.4867269 67.74135353 4.39453125 67.734375 C5.95204102 67.73050781 5.95204102 67.73050781 7.54101562 67.7265625 C9.16040039 67.73816406 9.16040039 67.73816406 10.8125 67.75 C11.88048828 67.74226563 12.94847656 67.73453125 14.04882812 67.7265625 C19.82002004 67.74083879 24.52704676 68.23587548 30 70 C32.81856031 70.23748926 32.81856031 70.23748926 35.4375 70.125 C36.30246094 70.10695313 37.16742188 70.08890625 38.05859375 70.0703125 C38.69925781 70.04710937 39.33992188 70.02390625 40 70 C40.13792969 69.37351562 40.27585937 68.74703125 40.41796875 68.1015625 C41.32653499 64.82096763 43.13737152 63.51218566 46 61.8125 C48 61 48 61 51 61 C51.33 60.01 51.66 59.02 52 58 C57.56369236 55.93221059 63.39518736 55.21384742 69.25 54.375 C70.1471875 54.2409375 71.044375 54.106875 71.96875 53.96875 C75.35477436 53.47199792 78.57273958 53 82 53 C79.57030789 55.94246639 77.76572236 56.4764069 74.02734375 56.95703125 C73.04443359 57.10076172 72.06152344 57.24449219 71.04882812 57.39257812 C69.00300209 57.66869401 66.9561249 57.93714919 64.90820312 58.19726562 C55.93171157 59.5329489 48.4517824 62.57352684 42.75 69.875 C40.31845212 72.52866043 39.20939708 72.97096995 35.5625 73.4765625 C30.83004534 73.50565546 26.51103929 73.50367976 22 72 C22 71.34 22 70.68 22 70 C1.37697287 69.77591574 1.37697287 69.77591574 -16.77734375 78.30859375 C-23.64445795 85.62090174 -27.56134079 91.92998671 -27.75 101.9375 C-27.79447266 103.10635742 -27.79447266 103.10635742 -27.83984375 104.29882812 C-27.90977701 106.19868177 -27.95724051 108.0993406 -28 110 C-41.49541415 106.66273923 -53.83977334 99.81438514 -61.9375 88.1875 C-67.83737288 77.70581094 -68.15875934 66.51566239 -65.09765625 55.2109375 C-57.25313017 32.26360498 -37.839463 16.35131275 -16.78125 5.8515625 C-4.62388752 0 -4.62388752 0 0 0 Z " fill="#A3C4DE" transform="translate(208,320)"/>
<path d="M0 0 C5.3461884 2.2980005 10.39025238 4.99525266 15.36621094 8.01708984 C16.33171875 8.59716797 17.29722656 9.17724609 18.29199219 9.77490234 C41.75404659 24.6290242 60.98412883 46.47536645 67.36621094 74.01708984 C68.14528936 78.09311723 68.48524762 81.92397288 68.46386719 86.07177734 C68.4590332 87.73466797 68.4590332 87.73466797 68.45410156 89.43115234 C68.4415332 91.14431641 68.4415332 91.14431641 68.42871094 92.89208984 C68.42419922 94.05740234 68.4196875 95.22271484 68.41503906 96.42333984 C68.40329875 99.2879763 68.38687664 102.15250618 68.36621094 105.01708984 C67.37621094 105.51208984 67.37621094 105.51208984 66.36621094 106.01708984 C66.35686523 105.31326172 66.34751953 104.60943359 66.33789062 103.88427734 C65.80353137 71.78081155 57.9779552 48.69870443 35.06152344 25.70458984 C11.18819597 3.16190686 -21.00589946 -6.15087147 -52.63378906 -10.98291016 C-40.63879798 -18.72724906 -11.94830896 -4.92725503 0 0 Z " fill="#454545" transform="translate(344.6337890625,31.98291015625)"/>
<path d="M0 0 C0.98550842 0.00245728 1.97101685 0.00491455 2.98638916 0.00744629 C5.82704628 0.0201006 8.66729446 0.0437254 11.5078125 0.07421875 C12.36318604 0.08178696 13.21855957 0.08935516 14.09985352 0.09715271 C18.45952702 0.16578469 22.58258579 0.45011102 26.875 1.3125 C26.875 1.6425 26.875 1.9725 26.875 2.3125 C25.2521106 2.29678955 25.2521106 2.29678955 23.59643555 2.28076172 C19.48302683 2.24385519 15.36963179 2.22134989 11.25610352 2.20263672 C9.49435953 2.19273659 7.73263123 2.17921304 5.97094727 2.16162109 C-25.57077258 1.85512825 -55.24943968 6.92418163 -83.125 22.3125 C-84.07890625 22.8384375 -85.0328125 23.364375 -86.015625 23.90625 C-91.7748225 27.227505 -96.97937189 31.11147995 -102.125 35.3125 C-102.455 34.6525 -102.785 33.9925 -103.125 33.3125 C-104.775 34.3025 -106.425 35.2925 -108.125 36.3125 C-105.80581149 29.97052154 -98.55865048 26.82721472 -93.125 23.3125 C-91.72701172 22.39210938 -91.72701172 22.39210938 -90.30078125 21.453125 C-77.31909201 13.37892171 -61.99179797 7.70370442 -47.125 4.3125 C-46.02526855 4.04179687 -46.02526855 4.04179687 -44.90332031 3.765625 C-29.98360417 0.21131033 -15.25681513 -0.04023993 0 0 Z " fill="#323232" transform="translate(269.125,17.6875)"/>
<path d="M0 0 C0.99 1.485 0.99 1.485 2 3 C-3.59718724 26.42156329 -25.22718256 47.83572514 -45 60 C-74.82928627 78.21699301 -74.82928627 78.21699301 -84.34765625 76.6015625 C-84.89292969 76.40304687 -85.43820312 76.20453125 -86 76 C-85.319375 75.72027344 -84.63875 75.44054687 -83.9375 75.15234375 C-80.61986024 73.78028795 -77.30961489 72.39130307 -74 71 C-73.36868164 70.73767578 -72.73736328 70.47535156 -72.08691406 70.20507812 C-56.96455781 63.902207 -43.71479561 56.3608402 -31 46 C-30.27296875 45.43925781 -29.5459375 44.87851562 -28.796875 44.30078125 C-14.95726169 33.133451 -5.90298766 16.49147177 0 0 Z " fill="#434343" transform="translate(409,449)"/>
<path d="M0 0 C0.66 0.66 1.32 1.32 2 2 C-7.33249668 18.39127111 -16.72574957 34.74308027 -26.25585938 51.02050781 C-29.29940995 56.21976471 -32.33785085 61.42200166 -35.375 66.625 C-35.96522949 67.63602783 -36.55545898 68.64705566 -37.16357422 69.6887207 C-40.82768301 75.97161103 -44.45180263 82.27501811 -48.046875 88.59765625 C-51.97101713 95.43351184 -55.99073663 102.2138288 -60 109 C-60.66 108.34 -61.32 107.68 -62 107 C-61.65445068 106.40912598 -61.30890137 105.81825195 -60.95288086 105.20947266 C-53.46742235 92.40497873 -46.01798568 79.58104769 -38.61572266 66.72827148 C-34.37307436 59.36654596 -30.10144387 52.02233605 -25.8125 44.6875 C-20.84915413 36.19802483 -15.94057455 27.67920442 -11.07250977 19.13476562 C-7.42360794 12.73156365 -3.73558696 6.35312853 0 0 Z " fill="#3D3D3D" transform="translate(167,220)"/>
<path d="M0 0 C1.3801051 4.14031531 -0.34491116 6.45918799 -2.125 10.1875 C-4.74456591 15.90638172 -7.0191215 21.61283001 -8.875 27.625 C-9.07754395 28.2749292 -9.28008789 28.9248584 -9.48876953 29.59448242 C-10.62372196 33.36900713 -11.43607186 37.10049687 -12 41 C-13.65 39.68 -15.3 38.36 -17 37 C-18.98 38.32 -20.96 39.64 -23 41 C-20.72004016 34.95622075 -17.47323111 29.49261576 -14.3125 23.875 C-13.71244141 22.79734375 -13.11238281 21.7196875 -12.49414062 20.609375 C-8.55491389 13.58561948 -4.39918104 6.74501757 0 0 Z " fill="#282727" transform="translate(105,328)"/>
<path d="M0 0 C0.66 0.99 1.32 1.98 2 3 C1.46777832 3.76570313 1.46777832 3.76570313 0.92480469 4.546875 C-3.36020399 10.82821326 -7.08425033 17.34279049 -10.75 24 C-15.44705962 32.45581121 -20.20371806 40.86048496 -25.14453125 49.17578125 C-27.56074477 53.24323998 -29.94385219 57.3294826 -32.32421875 61.41796875 C-33.49267343 63.42202984 -34.6613872 65.42593964 -35.83016968 67.42980957 C-36.60658595 68.76231351 -37.38200639 70.09539821 -38.15640259 71.42907715 C-39.24727578 73.30724603 -40.34198689 75.18312855 -41.4375 77.05859375 C-42.07558594 78.15486084 -42.71367187 79.25112793 -43.37109375 80.38061523 C-45 83 -45 83 -47 85 C-47.33 84.34 -47.66 83.68 -48 83 C-46.97460938 80.79882812 -46.97460938 80.79882812 -45.34375 78.03125 C-44.74111328 76.99871094 -44.13847656 75.96617187 -43.51757812 74.90234375 C-42.85177734 73.77957031 -42.18597656 72.65679687 -41.5 71.5 C-40.81100063 70.32471566 -40.12286205 69.14892631 -39.43554688 67.97265625 C-38.00464607 65.52536358 -36.5700355 63.08030353 -35.1328125 60.63671875 C-31.88704235 55.11128619 -28.69616958 49.55421547 -25.5 44 C-24.26587441 41.8605332 -23.03149765 39.72121125 -21.796875 37.58203125 C-19.49030144 33.58409092 -17.18456874 29.58566804 -14.87988281 25.5866394 C-13.50193062 23.19573403 -12.12365828 20.80501328 -10.74536133 18.41430664 C-9.77459018 16.73016037 -8.80428126 15.04574769 -7.83398438 13.36132812 C-6.94936523 11.82702148 -6.94936523 11.82702148 -6.046875 10.26171875 C-5.27102051 8.91533325 -5.27102051 8.91533325 -4.47949219 7.54174805 C-3.0082728 5.01421255 -1.51048171 2.5042345 0 0 Z " fill="#3D3D3D" transform="translate(240,94)"/>
<path d="M0 0 C19.54405535 -0.71142509 38.52726758 1.77234164 55.0078125 13.08251953 C54.3478125 13.74251953 53.6878125 14.40251953 53.0078125 15.08251953 C49.0478125 13.10251953 45.0878125 11.12251953 41.0078125 9.08251953 C41.0078125 8.42251953 41.0078125 7.76251953 41.0078125 7.08251953 C28.93528022 4.06438646 16.98092201 2.90545651 4.5703125 2.89501953 C3.65934814 2.89421387 2.74838379 2.8934082 1.80981445 2.89257812 C-9.1601096 2.94254741 -9.1601096 2.94254741 -19.6796875 5.70751953 C-23.46275563 7.08137059 -26.03679215 7.19814386 -29.9921875 6.08251953 C-20.85926491 1.10679991 -10.18538689 0.4218947 0 0 Z " fill="#A0C2DD" transform="translate(239.9921875,313.91748046875)"/>
<path d="M0 0 C2 1 2 1 3.5 4.1875 C9.17634486 15.8962704 18.05025823 25.71022245 27 35 C27.64195312 35.70511719 28.28390625 36.41023438 28.9453125 37.13671875 C38.00127097 46.80032811 49.75166852 54.14810577 61 61 C60.01 61.495 60.01 61.495 59 62 C38.74159594 52.72466459 20.51107099 34.55729203 7.625 16.8125 C7.20782715 16.24233154 6.7906543 15.67216309 6.36083984 15.0847168 C3.12447652 10.51406334 0 5.75047624 0 0 Z " fill="#464646" transform="translate(104,448)"/>
<path d="M0 0 C2.8125 0.125 2.8125 0.125 6 1 C8.05103887 4.18264653 9.28584658 7.2864022 10 11 C10.99 11 11.98 11 13 11 C13.20625 11.825 13.4125 12.65 13.625 13.5 C15.75297096 18.91665336 18.96935828 23.13857842 23.25 27.0625 C27.51463082 28.51635142 31.64203808 27.98238803 36 27 C36.99 26.34 37.98 25.68 39 25 C39.99 25 40.98 25 42 25 C42.0825 24.05125 42.165 23.1025 42.25 22.125 C42.4975 21.09375 42.745 20.0625 43 19 C45 17.8125 45 17.8125 47 17 C47.495 15.515 47.495 15.515 48 14 C48.68359375 15.71875 48.68359375 15.71875 49 18 C46.16419738 23.46012166 41.87599621 28.01847833 36.171875 30.40625 C31.51302186 31.6798933 26.73219498 32.39749301 22.30029297 30.13061523 C17.32815644 26.94247218 14.88514057 23.12691942 12.25 17.9375 C11.50768399 16.52864073 10.76295951 15.12104737 10.015625 13.71484375 C9.67337891 13.06370605 9.33113281 12.41256836 8.97851562 11.74169922 C7.82419515 9.68707789 6.4213316 7.87561796 5 6 C5 5.34 5 4.68 5 4 C4.360625 3.71125 3.72125 3.4225 3.0625 3.125 C1 2 1 2 0 0 Z " fill="#EADF90" transform="translate(256,474)"/>
<path d="M0 0 C-0.66796875 1.921875 -0.66796875 1.921875 -2 4 C-4.36328125 4.765625 -4.36328125 4.765625 -7.3125 5.25 C-14.91384688 6.91792144 -20.61869549 10.68059848 -27 15 C-28.34384766 15.90105469 -28.34384766 15.90105469 -29.71484375 16.8203125 C-31.21522154 17.82704897 -32.70984798 18.84247964 -34.1953125 19.87109375 C-36 21 -36 21 -39 22 C-40.20882096 24.00016466 -40.20882096 24.00016466 -41 26 C-41.66 26 -42.32 26 -43 26 C-43.33 27.32 -43.66 28.64 -44 30 C-44.5878125 30.07992188 -45.175625 30.15984375 -45.78125 30.2421875 C-52.01599378 32.37165985 -56.04183902 41.43865737 -59 47 C-59.66 46.67 -60.32 46.34 -61 46 C-48.82481257 24.89080131 -27.53974746 7.21487337 -3.8203125 0.37109375 C-2 0 -2 0 0 0 Z " fill="#A2C4DF" transform="translate(208,320)"/>
<path d="M0 0 C5.46998073 2.48635488 8.92120675 6.97932636 12 12 C12.77728344 14.49548894 12.94388476 16.36258368 13 19 C13.66 19 14.32 19 15 19 C15.71596804 20.90924812 16.43089772 22.81889197 17.140625 24.73046875 C17.67303459 26.13651408 18.22202037 27.53654923 18.796875 28.92578125 C22.50469482 38.06290866 23.3409148 47.20816946 23 57 C20.15086327 54.56432513 20.00895568 54.06388806 19.4453125 50.04296875 C19.33144413 48.42496302 19.22509682 46.80641605 19.125 45.1875 C18.39449228 36.37627305 16.47670177 29.1718247 13 21 C12.64550781 20.07960938 12.29101562 19.15921875 11.92578125 18.2109375 C10.14456857 13.77550672 9.36883018 12.07796211 5 10 C3 7 3 7 3 4 C2.01 4 1.02 4 0 4 C0 2.68 0 1.36 0 0 Z " fill="#ECAC95" transform="translate(284,421)"/>
<path d="M0 0 C0.66 0 1.32 0 2 0 C0.54343449 3.43169885 -1.31612174 5.38533788 -4.0625 7.875 C-9.13294112 12.78108322 -12.60765521 18.27457517 -16.25 24.25390625 C-17.11625 25.61322266 -17.11625 25.61322266 -18 27 C-18.33 27 -18.66 27 -19 27 C-19 25.35 -19 23.7 -19 22 C-19.99 21.67 -20.98 21.34 -22 21 C-7.03773306 2.15862681 -7.03773306 2.15862681 -1 1 C-0.67 0.67 -0.34 0.34 0 0 Z " fill="#2B2B2A" transform="translate(164,51)"/>
<path d="M0 0 C2.99683011 0.01844733 5.99335292 0.02050772 8.99023438 0.02026367 C10.91211203 0.02517377 12.83398762 0.03099985 14.75585938 0.0378418 C16.0871991 0.03951103 16.0871991 0.03951103 17.44543457 0.04121399 C21.89873816 0.07522855 26.09111166 0.3089827 30.47460938 1.20581055 C30.47460938 1.53581055 30.47460938 1.86581055 30.47460938 2.20581055 C28.85171997 2.1901001 28.85171997 2.1901001 27.19604492 2.17407227 C23.0826362 2.13716573 18.96924117 2.11466043 14.85571289 2.09594727 C13.09396891 2.08604714 11.33224061 2.07252359 9.57055664 2.05493164 C-10.54779621 1.85944036 -30.14548969 3.50005291 -49.52539062 9.20581055 C-49.85539063 8.21581055 -50.18539062 7.22581055 -50.52539062 6.20581055 C-47.98558014 5.57239534 -45.44388179 4.94914202 -42.90039062 4.33081055 C-41.86011719 4.06977539 -41.86011719 4.06977539 -40.79882812 3.8034668 C-27.14581819 0.51211619 -13.97716792 -0.08915192 0 0 Z " fill="#3B3B3B" transform="translate(265.525390625,17.794189453125)"/>
<path d="M0 0 C0.94875 0.556875 1.8975 1.11375 2.875 1.6875 C12.06718054 6.93750555 20.73372255 10.86608768 31.125 12.875 C56.34442571 18.01663857 56.34442571 18.01663857 63 28 C62.01 28 61.02 28 60 28 C59.505 27.01 59.505 27.01 59 26 C58.360625 25.855625 57.72125 25.71125 57.0625 25.5625 C55 25 55 25 53 22 C46.01349887 18.35486898 38.2214049 16.82809972 30.53515625 15.3203125 C22.52646523 13.74512244 15.37369676 11.51232301 8 8 C7.25234375 7.64679688 6.5046875 7.29359375 5.734375 6.9296875 C1.25774169 4.61858006 1.25774169 4.61858006 0.0625 1.75 C0.041875 1.1725 0.02125 0.595 0 0 Z " fill="#FCF7DB" transform="translate(196,450)"/>
<path d="M0 0 C0.99 0 1.98 0 3 0 C7.42340071 8.46215788 8.14241354 16.57992903 7 26 C5.2655359 29.1612007 3.17927768 30.41316476 0 32 C-0.86496094 32.47824219 -1.72992188 32.95648438 -2.62109375 33.44921875 C-9.32380137 37 -9.32380137 37 -12 37 C-12 37.66 -12 38.32 -12 39 C-13.485 39.495 -13.485 39.495 -15 40 C-17.1875 38.5625 -17.1875 38.5625 -19 37 C-18.34773438 36.82984375 -17.69546875 36.6596875 -17.0234375 36.484375 C-8.78629588 34.20032983 -1.58702704 30.75680213 3.1171875 23.20703125 C5.10030572 18.2492357 5.06299762 11.68522442 3.1015625 6.73046875 C2.13900502 5.10913965 1.07675946 3.54784173 0 2 C0 1.34 0 0.68 0 0 Z " fill="#DEC0F7" transform="translate(307,337)"/>
<path d="M0 0 C0.66 0.66 1.32 1.32 2 2 C-3.46709636 4.65670144 -8.31081629 5.60627874 -14.3125 6.3125 C-24.18296571 7.68686864 -30.82673188 10.45876488 -37.6875 17.875 C-40.31502742 20.69554483 -40.73856149 20.9614271 -44.8125 21.5625 C-48 21 -48 21 -50 19 C-46.7 18.67 -43.4 18.34 -40 18 C-39.67 16.68 -39.34 15.36 -39 14 C-37.01600198 11.5436215 -34.91663535 10.18488311 -32 9 C-31.01 9 -30.02 9 -29 9 C-28.67 8.01 -28.34 7.02 -28 6 C-22.39649333 3.90431855 -16.52881614 3.24489598 -10.625 2.4375 C-8.82499835 2.18996804 -7.02548303 1.93886405 -5.2265625 1.68359375 C-4.43846191 1.57587646 -3.65036133 1.46815918 -2.83837891 1.35717773 C-0.98933066 1.17575248 -0.98933066 1.17575248 0 0 Z " fill="#A1C3DC" transform="translate(288,372)"/>
<path d="M0 0 C6.36640033 2.42366391 12.65351237 4.83290996 18.68774414 8.00830078 C18.02774414 8.66830078 17.36774414 9.32830078 16.68774414 10.00830078 C15.75317383 9.57259766 14.81860352 9.13689453 13.85571289 8.68798828 C-4.42200359 0.32645278 -22.42951799 -4.14802609 -42.31225586 -6.99169922 C-31.50603847 -12.96905135 -10.95425634 -4.08182848 0 0 Z " fill="#525252" transform="translate(334.312255859375,27.99169921875)"/>
<path d="M0 0 C0.825 0.309375 1.65 0.61875 2.5 0.9375 C6.39126155 2.11877583 9.96166953 2.58224168 14 3 C12.35 4.98 10.7 6.96 9 9 C9.33 9.66 9.66 10.32 10 11 C10.639375 11.12375 11.27875 11.2475 11.9375 11.375 C12.618125 11.58125 13.29875 11.7875 14 12 C14.66666667 13.33333333 15.33333333 14.66666667 16 16 C17.99665598 17.67067133 19.99651034 19.33752986 22 21 C22.33 21.99 22.66 22.98 23 24 C13.24520742 20.95162732 7.21597654 13.41168047 2 5 C1.28824531 3.3520839 0.60509729 1.68999393 0 0 Z " fill="#EEDE7F" transform="translate(183,432)"/>
<path d="M0 0 C0.66 0.99 1.32 1.98 2 3 C-1.82320778 18.99830399 -14.21453766 34.10338538 -26 45 C-26.66 44.67 -27.32 44.34 -28 44 C-27.31035156 43.29617188 -26.62070312 42.59234375 -25.91015625 41.8671875 C-14.36251861 29.83805388 -5.30498374 15.91495121 0 0 Z " fill="#404040" transform="translate(409,449)"/>
<path d="M0 0 C0.66 0.33 1.32 0.66 2 1 C1.55269531 1.46148437 1.10539063 1.92296875 0.64453125 2.3984375 C-8.59132987 12.36292733 -10.6363637 20.10365235 -10.17578125 33.4140625 C-10.11777344 34.59742188 -10.05976563 35.78078125 -10 37 C-11.32 36.67 -12.64 36.34 -14 36 C-15.09120947 17.26757075 -15.09120947 17.26757075 -9.8671875 10.96875 C-9.25101563 10.3190625 -8.63484375 9.669375 -8 9 C-7.28070313 8.1646875 -6.56140625 7.329375 -5.8203125 6.46875 C-3.91719701 4.27441044 -1.97954044 2.12524266 0 0 Z " fill="#B6CB9F" transform="translate(194,395)"/>
<path d="M0 0 C0 0.66 0 1.32 0 2 C0.66 2.33 1.32 2.66 2 3 C-4.625 3.125 -4.625 3.125 -8 2 C-8 1.34 -8 0.68 -8 0 C-23.45892961 -0.00506484 -23.45892961 -0.00506484 -38.13671875 4.2578125 C-38.75160156 4.50273437 -39.36648437 4.74765625 -40 5 C-40.66 4.67 -41.32 4.34 -42 4 C-31.15527661 -5.10956765 -12.85105567 -4.50149972 0 0 Z " fill="#ACC8B2" transform="translate(238,390)"/>
<path d="M0 0 C4.44599303 3.96963663 7.53613213 7.90612895 8.42578125 13.83984375 C8.68763507 19.77270326 8.24747531 24.38699957 4.69140625 29.25 C0.31691922 33.77602815 -5.06708802 36.96025506 -11 39 C-13.3125 38.625 -13.3125 38.625 -15 38 C-12.98590006 36.94521177 -11.04176836 36.01420588 -8.88671875 35.28125 C-2.55197591 33.03089731 0.11934338 29.72438388 3.58984375 24.046875 C4.28787109 23.03367187 4.28787109 23.03367187 5 22 C5.66 22 6.32 22 7 22 C6.47143635 16.18579984 5.69349532 10.26037335 3 5 C2.01 4.67 1.02 4.34 0 4 C0 2.68 0 1.36 0 0 Z " fill="#9F9CDE" transform="translate(304,335)"/>
<path d="M0 0 C1.46067199 0.45082469 2.91848032 0.91093537 4.375 1.375 C5.18710938 1.63023437 5.99921875 1.88546875 6.8359375 2.1484375 C9 3 9 3 11 5 C9.700625 4.79375 8.40125 4.5875 7.0625 4.375 C3.52426186 4.34700761 2.2595077 4.78975071 -0.53125 7.05078125 C-4.97560599 11.87574848 -4.97560599 11.87574848 -7.99609375 17.625 C-9.21713998 20.51370081 -10.57036016 21.54073366 -13.125 23.3125 C-13.84945312 23.82425781 -14.57390625 24.33601563 -15.3203125 24.86328125 C-15.87460938 25.23839844 -16.42890625 25.61351562 -17 26 C-15.46387819 22.90127153 -13.92152816 19.88229224 -12 17 C-11.34 17 -10.68 17 -10 17 C-9.74347656 16.27039063 -9.48695313 15.54078125 -9.22265625 14.7890625 C-7.94574395 11.87623379 -6.45274213 9.82358229 -4.4375 7.375 C-2.32513314 4.80151356 -1.06114974 3.18344921 0 0 Z " fill="#E5DD7C" transform="translate(245,395)"/>
<path d="M0 0 C2.99220268 1.36370299 5.29026529 2.94908083 7.75 5.125 C8.67039062 5.93324219 8.67039062 5.93324219 9.609375 6.7578125 C10.06828125 7.16773438 10.5271875 7.57765625 11 8 C10.41089844 8.24105469 9.82179688 8.48210937 9.21484375 8.73046875 C6.57464794 10.2438085 5.34763738 11.85948212 3.5625 14.3125 C0.92343984 17.83313058 -1.79315921 20.97131703 -5 24 C-5.8971875 24.8971875 -5.8971875 24.8971875 -6.8125 25.8125 C-7.204375 26.204375 -7.59625 26.59625 -8 27 C-8 22.51501928 -5.76906654 19.44444862 -3 16 C-0.25 14.75 -0.25 14.75 2 14 C2.88693303 11.95894361 2.88693303 11.95894361 3 10 C3.66 10 4.32 10 5 10 C5.33 8.68 5.66 7.36 6 6 C5.071875 5.9071875 5.071875 5.9071875 4.125 5.8125 C2 5 2 5 0.75 2.4375 C0.5025 1.633125 0.255 0.82875 0 0 Z " fill="#FAD67D" transform="translate(276,413)"/>
<path d="M0 0 C0.66 0.33 1.32 0.66 2 1 C-2.57142857 6.71428571 -2.57142857 6.71428571 -5.0625 8.375 C-9.47557787 12.07629112 -11.71404285 18.26418087 -12.25 23.9140625 C-11.82883583 27.42815105 -10.03008681 30.09264565 -8.12890625 33.01953125 C-7 35 -7 35 -7 38 C-11.51714296 33.95014769 -13.73996065 30.26605715 -14.4375 24.1875 C-14.16251081 17.35205435 -10.70030898 10.85698595 -6 6 C-5.34 6 -4.68 6 -4 6 C-3.566875 5.071875 -3.566875 5.071875 -3.125 4.125 C-2 2 -2 2 0 0 Z " fill="#EAB46B" transform="translate(280,426)"/>
<path d="M0 0 C0.66 0.33 1.32 0.66 2 1 C1.20335937 1.67095703 1.20335937 1.67095703 0.390625 2.35546875 C-6.48234982 8.23763151 -13.79254088 14.88850672 -14.609375 24.40234375 C-14.67478756 25.91337388 -14.72149281 27.42532336 -14.75 28.9375 C-14.77964844 29.71673828 -14.80929688 30.49597656 -14.83984375 31.29882812 C-14.90977701 33.19868177 -14.95724051 35.0993406 -15 37 C-15.33 37 -15.66 37 -16 37 C-16.08774066 33.79184155 -16.14063706 30.58399538 -16.1875 27.375 C-16.21263672 26.47136719 -16.23777344 25.56773437 -16.26367188 24.63671875 C-16.32192172 19.3165664 -16.03826876 15.5751916 -13 11 C-11.05651499 9.26776336 -9.05279996 7.60118397 -7 6 C-6.0925 5.0925 -5.185 4.185 -4.25 3.25 C-2 1 -2 1 0 0 Z " fill="#9AC3D3" transform="translate(195,393)"/>
<path d="M0 0 C0 0.33 0 0.66 0 1 C-0.89195068 1.07516846 -1.78390137 1.15033691 -2.70288086 1.2277832 C-6.05287997 1.51541049 -9.40170629 1.81294178 -12.75024414 2.11694336 C-14.19195808 2.24584311 -15.63401836 2.37093408 -17.07641602 2.49194336 C-25.11961992 3.16941253 -32.37555853 4.18087879 -40 7 C-43.5625 6.6875 -43.5625 6.6875 -46 6 C-32.25217505 -1.48997067 -15.14287126 -0.15142871 0 0 Z " fill="#ADCBE1" transform="translate(256,314)"/>
<path d="M0 0 C0.99 0 1.98 0 3 0 C3.433125 0.9590625 3.433125 0.9590625 3.875 1.9375 C4.82823451 4.15206079 4.82823451 4.15206079 7 5 C7.33 5.99 7.66 6.98 8 8 C8.4640625 8.46019531 8.928125 8.92039062 9.40625 9.39453125 C14.49065573 14.51632231 18.74167479 24.86679669 19.1875 32 C19.125625 32.66 19.06375 33.32 19 34 C18.71125 33.38125 18.4225 32.7625 18.125 32.125 C17.06279958 29.86674235 17.06279958 29.86674235 15 28 C14.59952556 25.67724823 14.2602896 23.34260643 14 21 C13.34 21 12.68 21 12 21 C11.690625 19.9275 11.38125 18.855 11.0625 17.75 C9.05605733 12.27162466 5.42391606 7.97880212 1.86328125 3.44140625 C0 1 0 1 0 0 Z " fill="#F8BCD2" transform="translate(285,419)"/>
<path d="M0 0 C1.43568342 4.30705026 -0.5113113 7.08406945 -2.3125 11 C-2.63412109 11.72445313 -2.95574219 12.44890625 -3.28710938 13.1953125 C-4.69861172 16.33713702 -6.08013623 19.12020435 -8 22 C-10.625 22.6875 -10.625 22.6875 -13 23 C-9.17078533 14.96285711 -4.93194641 7.41251117 0 0 Z " fill="#31302F" transform="translate(105,328)"/>
<path d="M0 0 C0.66 0 1.32 0 2 0 C5.22265625 5.2734375 5.22265625 5.2734375 6 7 C5 9 5 9 2.1875 10.25 C-1.38046792 11.08952186 -1.98529362 10.75258419 -5 9 C-4.3566152 7.686298 -3.71021785 6.37407102 -3.0625 5.0625 C-2.70285156 4.33160156 -2.34320313 3.60070313 -1.97265625 2.84765625 C-1 1 -1 1 0 0 Z " fill="#262524" transform="translate(268,45)"/>
<path d="M0 0 C1.5 1.375 1.5 1.375 3 3 C3 3.66 3 4.32 3 5 C3.598125 5.28875 4.19625 5.5775 4.8125 5.875 C7 7 7 7 10 9 C15.96594388 9.70923808 21.36628992 8.95955133 27 7 C25.125 10.875 25.125 10.875 24 12 C17.41319434 12.70604837 10.86386004 13.34932235 5.25 9.375 C2.19525477 6.63356197 0.77970499 4.09345118 0 0 Z " fill="#FBF6D9" transform="translate(270,495)"/>
<path d="M0 0 C0 0.66 0 1.32 0 2 C-1.12277344 1.97679687 -2.24554688 1.95359375 -3.40234375 1.9296875 C-16.07865724 1.45099269 -16.07865724 1.45099269 -28.04296875 5.0703125 C-30 6 -30 6 -33 6 C-33.33 6.99 -33.66 7.98 -34 9 C-35.62890625 10.38671875 -35.62890625 10.38671875 -37.5625 11.6875 C-38.52349609 12.34298828 -38.52349609 12.34298828 -39.50390625 13.01171875 C-39.99761719 13.33785156 -40.49132812 13.66398437 -41 14 C-38.2465689 7.88711948 -33.42091331 4.33556845 -27.375 1.625 C-18.70805418 -1.32493093 -9.02887061 -0.32690522 0 0 Z " fill="#BFCC8F" transform="translate(230,390)"/>
<path d="M0 0 C4.53358824 0.41977669 8.59805085 1.10784495 12.9375 2.5 C17.64672847 3.99673153 22.07999175 4.60322514 27 5 C27.33 5.99 27.66 6.98 28 8 C17.80353482 7.20601296 9.42002625 4.97648649 0 1 C0 0.67 0 0.34 0 0 Z " fill="#EBE3A1" transform="translate(206,456)"/>
<path d="M0 0 C0.33 0.66 0.66 1.32 1 2 C1.825 1.9175 2.65 1.835 3.5 1.75 C7.4310803 2.03079145 9.6897672 3.13198532 13.09765625 4.9765625 C15.33119539 6.17817904 17.62698672 7.11012002 20 8 C20 8.66 20 9.32 20 10 C22.475 10.495 22.475 10.495 25 11 C24.67 11.99 24.34 12.98 24 14 C21.41048532 12.70846523 18.82761494 11.40494662 16.25 10.08984375 C14.83338817 9.37228757 13.41671991 8.65484278 12 7.9375 C11.2884375 7.57333984 10.576875 7.20917969 9.84375 6.83398438 C8.80734375 6.31094727 8.80734375 6.31094727 7.75 5.77734375 C7.12609375 5.46015381 6.5021875 5.14296387 5.859375 4.81616211 C3.92809271 3.9684367 2.05653905 3.45299595 0 3 C0 2.01 0 1.02 0 0 Z " fill="#F9F5D7" transform="translate(246,393)"/>
<path d="M0 0 C0.66 0.33 1.32 0.66 2 1 C-2.465625 6.21773026 -10.39436452 9.34730725 -17.13964844 10.30322266 C-23.6513641 10.76582763 -30.00142598 10.85536729 -36 8 C-33.44415629 6.72207814 -32.71025344 7.28626778 -30 8 C-19.14562872 8.90164106 -10.44314737 6.15080766 -1 1 C-0.67 0.67 -0.34 0.34 0 0 Z " fill="#D4CF76" transform="translate(220,425)"/>
<path d="M0 0 C-3.41065139 1.03974499 -6.52264842 1.11508506 -10.078125 1.09765625 C-11.23828125 1.09443359 -12.3984375 1.09121094 -13.59375 1.08789062 C-14.8003125 1.07951172 -16.006875 1.07113281 -17.25 1.0625 C-18.47203125 1.05798828 -19.6940625 1.05347656 -20.953125 1.04882812 C-23.96879946 1.03704815 -26.98437498 1.02059853 -30 1 C-29.67 0.34 -29.34 -0.32 -29 -1 C-19.81547003 -3.99724165 -8.84019035 -3.97971669 0 0 Z " fill="#97C4D6" transform="translate(235,388)"/>
<path d="M0 0 C0.66 0.33 1.32 0.66 2 1 C-3.82593659 7.37475671 -12.16404428 12.09856278 -20.8125 12.9375 C-22.20755646 12.9885116 -23.60418545 13.02205576 -25 13 C-20.85543077 9.42429321 -16.2790453 8.4896455 -11.09375 7.0625 C-8.15280583 6.05247877 -6.39505791 4.91604633 -4 3 C-3.34 3 -2.68 3 -2 3 C-2 2.34 -2 1.68 -2 1 C-1.34 0.67 -0.68 0.34 0 0 Z " fill="#E8C5E5" transform="translate(343,463)"/>
<path d="M0 0 C0.66 0.66 1.32 1.32 2 2 C-8.70139494 11.77927928 -8.70139494 11.77927928 -14 15 C-16.19921875 14.62109375 -16.19921875 14.62109375 -18 14 C-17.52578613 13.64695801 -17.05157227 13.29391602 -16.56298828 12.93017578 C-14.41573606 11.33012824 -12.27035107 9.72759558 -10.125 8.125 C-9.37863281 7.56941406 -8.63226563 7.01382812 -7.86328125 6.44140625 C-7.14785156 5.90644531 -6.43242187 5.37148438 -5.6953125 4.8203125 C-5.03547363 4.32805176 -4.37563477 3.83579102 -3.69580078 3.32861328 C-1.88280739 1.96315594 -1.88280739 1.96315594 0 0 Z " fill="#464646" transform="translate(380,493)"/>
<path d="M0 0 C0.33 0.99 0.66 1.98 1 3 C-0.58984375 5.63671875 -0.58984375 5.63671875 -2.9375 8.6875 C-3.54742798 9.48172363 -3.54742798 9.48172363 -4.16967773 10.29199219 C-7.7636532 14.88526136 -11.72126992 19.03605387 -16 23 C-16.66 22.67 -17.32 22.34 -18 22 C-17.28714844 21.24976563 -16.57429688 20.49953125 -15.83984375 19.7265625 C-9.97858279 13.48738694 -4.67223744 7.2076837 0 0 Z " fill="#353535" transform="translate(399,471)"/>
<path d="M0 0 C1.98 0 3.96 0 6 0 C6.309375 0.8353125 6.309375 0.8353125 6.625 1.6875 C8.50327969 4.84642493 11.18848805 6.66704327 14 9 C14.33 9.99 14.66 10.98 15 12 C9.58971327 10.3092854 3.60011075 6.83678941 0.76171875 1.8046875 C0.51035156 1.20914062 0.25898438 0.61359375 0 0 Z " fill="#ECE196" transform="translate(191,444)"/>
<path d="M0 0 C1 3 1 3 0 6 C-0.63112815 12.20609347 0.27642574 15.27434923 3.90625 20.3359375 C5 22 5 22 5 24 C2 23 2 23 0.8671875 21.29296875 C0.53976562 20.59816406 0.21234375 19.90335937 -0.125 19.1875 C-0.45757812 18.50042969 -0.79015625 17.81335938 -1.1328125 17.10546875 C-3.10994203 12.30514075 -3.32722807 8.15384215 -3 3 C-1.5 1 -1.5 1 0 0 Z " fill="#F9D57A" transform="translate(267,440)"/>
<path d="M0 0 C0.66 0 1.32 0 2 0 C0.71075644 3.40202433 -0.7652076 6.50564554 -2.6015625 9.64453125 C-3.09140625 10.48564453 -3.58125 11.32675781 -4.0859375 12.19335938 C-4.84777344 13.48983398 -4.84777344 13.48983398 -5.625 14.8125 C-6.140625 15.69615234 -6.65625 16.57980469 -7.1875 17.49023438 C-8.45531114 19.66194789 -9.72622348 21.8317818 -11 24 C-11.66 23.34 -12.32 22.68 -13 22 C-10.88693047 18.32633225 -8.75762005 14.66234751 -6.625 11 C-5.72007812 9.42605469 -5.72007812 9.42605469 -4.796875 7.8203125 C-4.21679688 6.82773438 -3.63671875 5.83515625 -3.0390625 4.8125 C-2.50490723 3.89082031 -1.97075195 2.96914062 -1.42041016 2.01953125 C-0.9516748 1.35308594 -0.48293945 0.68664062 0 0 Z " fill="#484848" transform="translate(205,155)"/>
<path d="M0 0 C0.33 0 0.66 0 1 0 C1.19515335 5.19511676 0.56093949 9.76566324 -0.8125 14.75 C-0.97814453 15.40871094 -1.14378906 16.06742187 -1.31445312 16.74609375 C-2.25606138 20.24958709 -3.06924108 22.74944588 -6 25 C-5.24902724 17.49027237 -5.24902724 17.49027237 -4 15.03125 C-2.85413436 12.70371043 -2.60219494 10.82487604 -2.375 8.25 C-2.30023438 7.45078125 -2.22546875 6.6515625 -2.1484375 5.828125 C-2.09945313 5.22484375 -2.05046875 4.6215625 -2 4 C-1.34 4 -0.68 4 0 4 C0 2.68 0 1.36 0 0 Z " fill="#E8C5E5" transform="translate(363,421)"/>
<path d="M0 0 C-1.30567792 3.91703377 -2.80094602 4.31757187 -6.375 6.25 C-7.84066406 7.06210937 -7.84066406 7.06210937 -9.3359375 7.890625 C-12 9 -12 9 -15 8 C-11.19655564 3.56264825 -5.95673618 0 0 0 Z " fill="#2C2B2C" transform="translate(194,33)"/>
<path d="M0 0 C0.52464844 0.23203125 1.04929687 0.4640625 1.58984375 0.703125 C-0.61216157 2.02734464 -2.82077451 3.33739229 -5.03515625 4.640625 C-5.65261719 5.01380859 -6.27007812 5.38699219 -6.90625 5.77148438 C-10.74413417 8.01361671 -13.90226976 9.26620677 -18.41015625 9.703125 C-15.7352257 6.61886344 -12.52573481 4.90510005 -8.97265625 2.953125 C-7.83957031 2.31890625 -6.70648438 1.6846875 -5.5390625 1.03125 C-2.41015625 -0.296875 -2.41015625 -0.296875 0 0 Z " fill="#373737" transform="translate(362.41015625,508.296875)"/>
<path d="M0 0 C0.66 0 1.32 0 2 0 C1.24328215 8.77792704 -2.30544941 14.68911884 -7 22 C-7.66 21.67 -8.32 21.34 -9 21 C-8.43410156 19.90300781 -7.86820312 18.80601562 -7.28515625 17.67578125 C-6.54395074 16.22151727 -5.80308305 14.76708107 -5.0625 13.3125 C-4.68931641 12.59126953 -4.31613281 11.87003906 -3.93164062 11.12695312 C-2.06034761 7.43494258 -0.51730444 4.16306904 0 0 Z " fill="#E8C8E5" transform="translate(295,397)"/>
<path d="M0 0 C0.66 0 1.32 0 2 0 C0.3003494 4.73474097 -2.13659027 8.96167111 -4.625 13.3125 C-5.04523438 14.05306641 -5.46546875 14.79363281 -5.8984375 15.55664062 C-6.92948495 17.37269011 -7.96436046 19.18656533 -9 21 C-9.66 20.34 -10.32 19.68 -11 19 C-9.2204041 15.82640211 -7.42438252 12.66241477 -5.625 9.5 C-5.11710937 8.59378906 -4.60921875 7.68757813 -4.0859375 6.75390625 C-3.59609375 5.89667969 -3.10625 5.03945313 -2.6015625 4.15625 C-2.15119629 3.36025391 -1.70083008 2.56425781 -1.23681641 1.74414062 C-0.82866699 1.16857422 -0.42051758 0.59300781 0 0 Z " fill="#393939" transform="translate(116,308)"/>
<path d="M0 0 C0.99 0 1.98 0 3 0 C3 0.66 3 1.32 3 2 C-2.61 4.97 -8.22 7.94 -14 11 C-14 8 -14 8 -12 6 C-8.42385622 3.61590414 -5.0516022 2.41806077 -1 1 C-0.67 0.67 -0.34 0.34 0 0 Z " fill="#E8F6FC" transform="translate(194,322)"/>
<path d="M0 0 C1.65 0 3.3 0 5 0 C6.5625 2.8125 6.5625 2.8125 8 6 C7.67 6.99 7.34 7.98 7 9 C1.21538462 5.67692308 1.21538462 5.67692308 0.125 2.25 C0.08375 1.5075 0.0425 0.765 0 0 Z " fill="#282727" transform="translate(159,208)"/>
<path d="M0 0 C3.4375 0.8125 3.4375 0.8125 7 2 C7.33 2.99 7.66 3.98 8 5 C8.99 5.33 9.98 5.66 11 6 C11 6.66 11 7.32 11 8 C11.99 8.33 12.98 8.66 14 9 C14.6875 11.0625 14.6875 11.0625 15 13 C14.01 12.13375 13.02 11.2675 12 10.375 C8.6242947 7.46871793 5.11264353 4.808192 1.50390625 2.19921875 C1.00761719 1.80347656 0.51132812 1.40773438 0 1 C0 0.67 0 0.34 0 0 Z " fill="#FBF5D8" transform="translate(270,407)"/>
<path d="M0 0 C0.66 0.33 1.32 0.66 2 1 C1.20335937 1.67095703 1.20335937 1.67095703 0.390625 2.35546875 C-4.68646317 6.70064092 -9.23708473 10.78344065 -12 17 C-13.05311186 14.41508908 -13.12415478 13.30624846 -12.0625 10.6875 C-8.85427321 6.50708327 -4.75702451 2.37851225 0 0 Z " fill="#A2C4C6" transform="translate(195,393)"/>
<path d="M0 0 C0.66 0.33 1.32 0.66 2 1 C0.47005208 2.23697917 -1.05989583 3.47395833 -2.58984375 4.7109375 C-4.13266437 5.9666391 -4.13266437 5.9666391 -5 8 C-5.99 8.33 -6.98 8.66 -8 9 C-9.00642948 10.32848691 -10.00692179 11.66150329 -11 13 C-11.66 13 -12.32 13 -13 13 C-11.50536684 9.3852622 -9.4391696 7.35564512 -6.5 4.8125 C-5.7059375 4.11769531 -4.911875 3.42289062 -4.09375 2.70703125 C-2 1 -2 1 0 0 Z " fill="#EAF7FD" transform="translate(260,381)"/>
<path d="M0 0 C1.46067199 0.45082469 2.91848032 0.91093537 4.375 1.375 C5.18710938 1.63023437 5.99921875 1.88546875 6.8359375 2.1484375 C9 3 9 3 11 5 C10.07767578 4.96519531 10.07767578 4.96519531 9.13671875 4.9296875 C8.32847656 4.91164063 7.52023438 4.89359375 6.6875 4.875 C5.48673828 4.84019531 5.48673828 4.84019531 4.26171875 4.8046875 C1.71611424 4.84182678 1.71611424 4.84182678 -1 7 C-0.67 4.69 -0.34 2.38 0 0 Z " fill="#E9DE8A" transform="translate(245,395)"/>
<path d="M0 0 C0.66 0 1.32 0 2 0 C0.64002446 6.04433574 -2.85651794 9.63494136 -7 14 C-7.33 13.01 -7.66 12.02 -8 11 C-6.6015625 8.80859375 -6.6015625 8.80859375 -4.625 6.4375 C-2.0525231 3.38757937 -2.0525231 3.38757937 0 0 Z " fill="#E9C4E5" transform="translate(355,447)"/>
<path d="M0 0 C4.29 0.33 8.58 0.66 13 1 C13.33 1.99 13.66 2.98 14 4 C12.4156683 3.91231752 10.83246433 3.80412671 9.25 3.6875 C7.92742187 3.60048828 7.92742187 3.60048828 6.578125 3.51171875 C4 3 4 3 0 0 Z " fill="#EBDE90" transform="translate(220,460)"/>
<path d="M0 0 C0.66 0.33 1.32 0.66 2 1 C2 1.99 2 2.98 2 4 C2.66 4 3.32 4 4 4 C4.33 4.99 4.66 5.98 5 7 C4.01 7.495 4.01 7.495 3 8 C0.5249829 6.88568235 -1.67883419 5.41849022 -4 4 C-3.67 3.34 -3.34 2.68 -3 2 C-2.01 2 -1.02 2 0 2 C0 1.34 0 0.68 0 0 Z " fill="#292827" transform="translate(178,219)"/>
<path d="M0 0 C-6.20514474 2.13619737 -11.42684522 3.36517527 -18 3 C-15.42516172 0.42516172 -13.69010659 0.3921567 -10.125 -0.1875 C-8.55105469 -0.45626953 -8.55105469 -0.45626953 -6.9453125 -0.73046875 C-4.24750843 -0.97735002 -2.53388914 -0.86299123 0 0 Z " fill="#E2F2FC" transform="translate(280,378)"/>
<path d="M0 0 C0.33 0 0.66 0 1 0 C1 4.29 1 8.58 1 13 C-0.32 12.67 -1.64 12.34 -3 12 C-2.67 11.67 -2.34 11.34 -2 11 C-2.020625 9.906875 -2.04125 8.81375 -2.0625 7.6875 C-2.0048129 4.28396118 -1.78499478 2.78905434 0 0 Z " fill="#95C3E0" transform="translate(178,414)"/>
<path d="M0 0 C0.66 0.33 1.32 0.66 2 1 C2.36923077 5.55384615 2.36923077 5.55384615 0.5 7.8125 C0.005 8.204375 -0.49 8.59625 -1 9 C-1.99 8.34 -2.98 7.68 -4 7 C-2.68 4.69 -1.36 2.38 0 0 Z " fill="#2C2B2A" transform="translate(73,383)"/>
<path d="M0 0 C2.99220268 1.36370299 5.29026529 2.94908083 7.75 5.125 C8.67039062 5.93324219 8.67039062 5.93324219 9.609375 6.7578125 C10.06828125 7.16773438 10.5271875 7.57765625 11 8 C10.01 8.495 10.01 8.495 9 9 C2.51768489 5.9903537 2.51768489 5.9903537 0.5625 2.25 C0.376875 1.5075 0.19125 0.765 0 0 Z " fill="#EBD997" transform="translate(276,413)"/>
<path d="M0 0 C-1 2 -1 2 -4.1875 3.1875 C-7.96076983 3.99163947 -10.29472477 3.90372567 -14 3 C-8.75250397 0.37625198 -5.91152367 -0.09534716 0 0 Z " fill="#A0C2DE" transform="translate(224,317)"/>
<path d="M0 0 C1.32 0 2.64 0 4 0 C3.67 1.65 3.34 3.3 3 5 C1.68 5.33 0.36 5.66 -1 6 C-1.625 4.125 -1.625 4.125 -2 2 C-1.34 1.34 -0.68 0.68 0 0 Z " fill="#242323" transform="translate(148,65)"/>
<path d="M0 0 C0.99 0.33 1.98 0.66 3 1 C2.21625 1.2475 1.4325 1.495 0.625 1.75 C-2.46654032 3.22216206 -2.69320634 3.95081479 -4 7 C-5.3050581 8.68889872 -6.63360658 10.3603279 -8 12 C-7.67 10.02 -7.34 8.04 -7 6 C-6.01 5.67 -5.02 5.34 -4 5 C-3.67 4.01 -3.34 3.02 -3 2 C-2.01 1.34 -1.02 0.68 0 0 Z " fill="#86A4E4" transform="translate(251,339)"/>
<path d="M0 0 C0.66 0.99 1.32 1.98 2 3 C-0.97 7.95 -0.97 7.95 -4 13 C-4.66 12.34 -5.32 11.68 -6 11 C-4.02 7.37 -2.04 3.74 0 0 Z " fill="#484848" transform="translate(135,275)"/>
<path d="M0 0 C1.41655793 -0.0272415 2.83327045 -0.04650467 4.25 -0.0625 C5.43335938 -0.07990234 5.43335938 -0.07990234 6.640625 -0.09765625 C8.90691002 -0.00385306 10.8288895 0.36758937 13 1 C13 1.66 13 2.32 13 3 C11.20759337 2.88610125 9.41605165 2.75852313 7.625 2.625 C6.12839844 2.52058594 6.12839844 2.52058594 4.6015625 2.4140625 C2 2 2 2 0 0 Z " fill="#E9B76E" transform="translate(293,475)"/>
<path d="M0 0 C0.33 0.66 0.66 1.32 1 2 C-4.0022779 9.48291572 -4.0022779 9.48291572 -8 12 C-8.66 11.67 -9.32 11.34 -10 11 C-9.44570313 10.45730469 -8.89140625 9.91460937 -8.3203125 9.35546875 C-7.23363281 8.28232422 -7.23363281 8.28232422 -6.125 7.1875 C-5.40570313 6.47980469 -4.68640625 5.77210938 -3.9453125 5.04296875 C-1.84641063 2.95600806 -1.84641063 2.95600806 0 0 Z " fill="#FAE7F9" transform="translate(354,453)"/>
<path d="M0 0 C4.455 2.97 4.455 2.97 9 6 C8.01 6.495 8.01 6.495 7 7 C3.4375 5.75 3.4375 5.75 0 4 C-0.33 3.01 -0.66 2.02 -1 1 C-0.67 0.67 -0.34 0.34 0 0 Z " fill="#ECF7FC" transform="translate(154,417)"/>
<path d="M0 0 C4.61513112 1.31860889 8.09897612 3.21355437 12 6 C10.68 6.33 9.36 6.66 8 7 C8 6.34 8 5.68 8 5 C7.05125 4.731875 6.1025 4.46375 5.125 4.1875 C2 3 2 3 0 0 Z " fill="#E8DE94" transform="translate(256,400)"/>
<path d="M0 0 C2.5178998 1.2589499 2.92708464 2.39057117 4.1875 4.875 C4.55230469 5.57367188 4.91710937 6.27234375 5.29296875 6.9921875 C6 9 6 9 5 12 C4.15556432 10.75747321 3.3248542 9.5056114 2.5 8.25 C1.80390625 7.20585937 1.80390625 7.20585937 1.09375 6.140625 C0 4 0 4 0 0 Z " fill="#3F3F3F" transform="translate(104,448)"/>
<path d="M0 0 C-3.85477249 2.56984833 -7.52040582 3.85814266 -12 5 C-11 2 -11 2 -7.6875 0.25 C-3.02436902 -1.33072237 -3.02436902 -1.33072237 0 0 Z " fill="#97C4D8" transform="translate(204,390)"/>
<path d="M0 0 C2.15377564 2.62198774 3.40072174 4.64404172 4 8 C1.08482708 6.92598892 -0.77810176 6.22189824 -3 4 C-2.01 3.67 -1.02 3.34 0 3 C0 2.01 0 1.02 0 0 Z " fill="#D8D7D5" transform="translate(330,251)"/>
<path d="M0 0 C7.13414634 5.70731707 7.13414634 5.70731707 9 9 C8.67 9.99 8.34 10.98 8 12 C6.66081194 10.37982158 5.3288031 8.75370657 4 7.125 C3.2575 6.22007813 2.515 5.31515625 1.75 4.3828125 C0 2 0 2 0 0 Z " fill="#383838" transform="translate(387,63)"/>
<path d="M0 0 C0.66 0 1.32 0 2 0 C2.66 1.65 3.32 3.3 4 5 C2.1875 5.625 2.1875 5.625 0 6 C-0.99 5.34 -1.98 4.68 -3 4 C-1.625 2 -1.625 2 0 0 Z " fill="#302F2F" transform="translate(268,45)"/>
<path d="M0 0 C3.96064107 1.74268207 7.74436549 4.14674729 11 7 C11 7.66 11 8.32 11 9 C8.03469503 7.64199529 5.70868729 6.07571737 3.25 3.9375 C2.63640625 3.41027344 2.0228125 2.88304687 1.390625 2.33984375 C0.93171875 1.89769531 0.4728125 1.45554687 0 1 C0 0.67 0 0.34 0 0 Z " fill="#383838" transform="translate(135,489)"/>
<path d="M0 0 C0.99 0.33 1.98 0.66 3 1 C-0.96 4.465 -0.96 4.465 -5 8 C-5.66 7.34 -6.32 6.68 -7 6 C-6.34 5.34 -5.68 4.68 -5 4 C-4.01 4 -3.02 4 -2 4 C-1.34 2.68 -0.68 1.36 0 0 Z " fill="#E8F4FB" transform="translate(168,338)"/>
<path d="M0 0 C0.66 0.66 1.32 1.32 2 2 C0.35 4.97 -1.3 7.94 -3 11 C-3.66 11 -4.32 11 -5 11 C-3.77472971 6.94718288 -2.30119506 3.55639236 0 0 Z " fill="#3F3F3F" transform="translate(211,144)"/>
<path d="M0 0 C0.66 0.99 1.32 1.98 2 3 C0.35 5.64 -1.3 8.28 -3 11 C-3.66 10.34 -4.32 9.68 -5 9 C-3.35 6.03 -1.7 3.06 0 0 Z " fill="#525252" transform="translate(240,94)"/>
<path d="M0 0 C0 2.62113708 -0.31292445 4.50935112 -1 7 C-1.33 6.34 -1.66 5.68 -2 5 C-4.475 6.485 -4.475 6.485 -7 8 C-5.50902342 4.2047869 -3.24299151 2.38957269 0 0 Z " fill="#373635" transform="translate(168,46)"/>
<path d="M0 0 C0.99 0.33 1.98 0.66 3 1 C0.525 4.465 0.525 4.465 -2 8 C-2.66 7.67 -3.32 7.34 -4 7 C-4 5 -4 5 -2 3 C-1.34 2.01 -0.68 1.02 0 0 Z " fill="#E8F5FC" transform="translate(152,354)"/>
<path d="M0 0 C0.99 0.99 1.98 1.98 3 3 C2.34 4.98 1.68 6.96 1 9 C0.34 8.34 -0.32 7.68 -1 7 C-0.625 4.875 -0.625 4.875 0 3 C-0.66 2.67 -1.32 2.34 -2 2 C-1.34 1.34 -0.68 0.68 0 0 Z " fill="#292928" transform="translate(301,103)"/>
<path d="M0 0 C2.49415272 0.99766109 3.78740335 1.68616685 5.3125 3.9375 C6 6 6 6 5 9 C4.16094435 7.87926138 3.32892169 6.75325453 2.5 5.625 C2.0359375 4.99851562 1.571875 4.37203125 1.09375 3.7265625 C0 2 0 2 0 0 Z " fill="#E8E098" transform="translate(183,432)"/>
<path d="M0 0 C7.75 0.75 7.75 0.75 10 3 C3.375 3.125 3.375 3.125 0 2 C0 1.34 0 0.68 0 0 Z " fill="#B3CAA5" transform="translate(230,390)"/>
<path d="M0 0 C2.9375 0.8125 2.9375 0.8125 6 2 C6.33 2.99 6.66 3.98 7 5 C4.61435923 4.42415568 2.33317216 3.77772405 0 3 C0 2.01 0 1.02 0 0 Z " fill="#E9C5E5" transform="translate(317,341)"/>
<path d="M0 0 C2.64 1.98 5.28 3.96 8 6 C7.34 6.66 6.68 7.32 6 8 C3.69 6.02 1.38 4.04 -1 2 C-0.67 1.34 -0.34 0.68 0 0 Z " fill="#535353" transform="translate(370,47)"/>
<path d="M0 0 C0.625 1.8125 0.625 1.8125 1 4 C0.01 5.485 0.01 5.485 -1 7 C-2.32 6.67 -3.64 6.34 -5 6 C-3.35 4.02 -1.7 2.04 0 0 Z " fill="#FBF5D7" transform="translate(302,495)"/>
<path d="M0 0 C3.91402949 1.26941497 5.79072873 2.51167694 8 6 C6.68 5.67 5.36 5.34 4 5 C4 4.34 4 3.68 4 3 C2.68 3 1.36 3 0 3 C0 2.01 0 1.02 0 0 Z " fill="#E9E092" transform="translate(268,407)"/>
<path d="M0 0 C0.33 0.99 0.66 1.98 1 3 C0.67 3.66 0.34 4.32 0 5 C0.66 5 1.32 5 2 5 C1.67 5.66 1.34 6.32 1 7 C-1.5625 7.625 -1.5625 7.625 -4 8 C-2.68 5.36 -1.36 2.72 0 0 Z " fill="#363635" transform="translate(96,343)"/>
<path d="M0 0 C3.465 1.485 3.465 1.485 7 3 C5.1875 4.0625 5.1875 4.0625 3 5 C2.01 4.67 1.02 4.34 0 4 C0 2.68 0 1.36 0 0 Z " fill="#2C2A2A" transform="translate(222,197)"/>
<path d="M0 0 C1.98 1.65 3.96 3.3 6 5 C5.67 5.99 5.34 6.98 5 8 C0 2.25 0 2.25 0 0 Z " fill="#353535" transform="translate(116,468)"/>
<path d="M0 0 C2.475 0.495 2.475 0.495 5 1 C5.33 1.99 5.66 2.98 6 4 C5.01 4.33 4.02 4.66 3 5 C1.5 3.625 1.5 3.625 0 2 C0 1.34 0 0.68 0 0 Z " fill="#2F2D2E" transform="translate(369,339)"/>
<path d="M0 0 C0.66 0.66 1.32 1.32 2 2 C0.68 4.31 -0.64 6.62 -2 9 C-2.66 8.34 -3.32 7.68 -4 7 C-2.68 4.69 -1.36 2.38 0 0 Z " fill="#3F3F3F" transform="translate(109,320)"/>
<path d="M0 0 C2.9375 0.75 2.9375 0.75 6 2 C6.33 3.32 6.66 4.64 7 6 C4.36 4.68 1.72 3.36 -1 2 C-0.67 1.34 -0.34 0.68 0 0 Z " fill="#363434" transform="translate(295,292)"/>
<path d="M0 0 C2.4375 0.8125 2.4375 0.8125 5 2 C5.33 2.99 5.66 3.98 6 5 C4.68 5 3.36 5 2 5 C1.34 3.35 0.68 1.7 0 0 Z " fill="#2C2B29" transform="translate(265,137)"/>
<path d="M0 0 C1.80411967 2.75924185 2.0127245 3.88972103 1.625 7.25 C1.41875 8.1575 1.2125 9.065 1 10 C0.67 10 0.34 10 0 10 C-1.125 2.25 -1.125 2.25 0 0 Z " fill="#545454" transform="translate(410,102)"/>
<path d="M0 0 C0.99 0.66 1.98 1.32 3 2 C3 2.66 3 3.32 3 4 C1.02 4.66 -0.96 5.32 -3 6 C-1.125 1.125 -1.125 1.125 0 0 Z " fill="#E4E3E4" transform="translate(241,97)"/>
</svg>
